<?xml version="1.0" standalone="yes"?>

<svg version="1.1" viewBox="0.0 0.0 960.0 720.0" fill="none" stroke="none" stroke-linecap="square" stroke-miterlimit="10" xmlns="http://www.w3.org/2000/svg" xmlns:xlink="http://www.w3.org/1999/xlink"><clipPath id="p.0"><path d="m0 0l960.0 0l0 720.0l-960.0 0l0 -720.0z" clip-rule="nonzero"></path></clipPath><g clip-path="url(#p.0)"><path fill="#000000" fill-opacity="0.0" d="m0 0l960.0 0l0 720.0l-960.0 0z" fill-rule="nonzero"></path><path fill="#cfe2f3" d="m104.461945 280.5748l128.62991 0l0 53.51181l-128.62991 0z" fill-rule="nonzero"></path><path stroke="#000000" stroke-width="1.0" stroke-linejoin="round" stroke-linecap="butt" d="m104.461945 280.5748l128.62991 0l0 53.51181l-128.62991 0z" fill-rule="nonzero"></path><path fill="#000000" d="m121.87749 301.8151l0 4.21875l6.984375 0l0 1.375l-6.984375 0l0 4.234375l7.828125 0l0 1.375l-9.265625 0l0 -12.578125l9.265625 0l0 1.375l-7.828125 0zm10.639877 11.203125l0 -8.25l-1.9375 0l0 -1.25l1.9375 0l0 -3.40625l1.421875 0l0 3.40625l2.1875 0l0 1.25l-2.1875 0l0 8.25l-1.421875 0zm6.4725647 -13.296875l0 5.28125q0.515625 -0.6875 1.25 -1.15625q0.75 -0.484375 1.703125 -0.484375q0.953125 0 1.625 0.265625q0.6875 0.265625 1.203125 0.796875q1.171875 1.171875 1.171875 3.0625l0 5.53125l-1.421875 0l0 -5.484375q0 -1.3125 -0.75 -2.09375q-0.734375 -0.78125 -1.90625 -0.78125q-1.203125 0 -2.03125 0.796875q-0.84375 0.8125 -0.84375 2.09375l0 5.46875l-1.421875 0l0 -13.296875l1.421875 0zm13.371933 12.15625q1.921875 0 2.765625 -1.59375l1.546875 0q-0.484375 1.296875 -1.5625 2.09375q-1.078125 0.796875 -2.765625 0.796875q-2.140625 0 -3.5 -1.421875q-1.3125 -1.390625 -1.3125 -3.484375q0 -2.109375 1.265625 -3.484375q1.328125 -1.421875 3.453125 -1.421875q2.125 0 3.453125 1.421875q1.25 1.375 1.25 3.484375l0 0.5625l-7.953125 0q0.15625 1.3125 1.046875 2.171875q0.90625 0.875 2.3125 0.875zm-0.109375 -7.21875q-1.3125 0 -2.203125 0.8125q-0.84375 0.78125 -1.03125 2.03125l6.46875 0q-0.203125 -1.25 -1.03125 -2.03125q-0.890625 -0.8125 -2.203125 -0.8125zm11.282166 -1.296875l0 1.421875l-0.171875 0q-1.53125 0 -2.5 1.25q-0.921875 1.171875 -0.921875 2.796875l0 4.1875l-1.421875 0l0 -9.5l1.421875 0l0 2.34375q0.453125 -1.484375 1.984375 -2.1875q0.625 -0.3125 1.515625 -0.3125l0.09375 0zm2.8426514 0.15625l0 1.484375q0.515625 -0.6875 1.25 -1.15625q0.75 -0.484375 1.703125 -0.484375q0.953125 0 1.625 0.265625q0.6875 0.265625 1.203125 0.796875q1.171875 1.171875 1.171875 3.0625l0 5.53125l-1.421875 0l0 -5.484375q0 -1.3125 -0.75 -2.09375q-0.734375 -0.78125 -1.90625 -0.78125q-1.203125 0 -2.03125 0.796875q-0.84375 0.8125 -0.84375 2.09375l0 5.46875l-1.421875 0l0 -9.5l1.421875 0zm13.371933 8.359375q1.921875 0 2.765625 -1.59375l1.546875 0q-0.484375 1.296875 -1.5625 2.09375q-1.078125 0.796875 -2.765625 0.796875q-2.140625 0 -3.5 -1.421875q-1.3125 -1.390625 -1.3125 -3.484375q0 -2.109375 1.265625 -3.484375q1.328125 -1.421875 3.453125 -1.421875q2.125 0 3.453125 1.421875q1.25 1.375 1.25 3.484375l0 0.5625l-7.953125 0q0.15625 1.3125 1.046875 2.171875q0.90625 0.875 2.3125 0.875zm-0.109375 -7.21875q-1.3125 0 -2.203125 0.8125q-0.84375 0.78125 -1.03125 2.03125l6.46875 0q-0.203125 -1.25 -1.03125 -2.03125q-0.890625 -0.8125 -2.203125 -0.8125zm7.2977905 8.359375l0 -8.25l-1.9375 0l0 -1.25l1.9375 0l0 -3.40625l1.421875 0l0 3.40625l2.1875 0l0 1.25l-2.1875 0l0 8.25l-1.421875 0zm10.75885 0l-1.4375 0l0 -12.578125l6.03125 0q1.921875 0 3.078125 1.0625q1.15625 1.046875 1.15625 2.875q0 2.359375 -1.953125 3.203125q-0.546875 0.25 -1.078125 0.359375l3.296875 5.078125l-1.6875 0l-3.046875 -4.828125l-4.359375 0l0 4.828125zm0 -6.171875l4.34375 0q2.015625 0 2.78125 -1.25q0.28125 -0.484375 0.28125 -1.21875q0 -1.203125 -0.828125 -1.890625q-0.8125 -0.703125 -2.15625 -0.703125l-4.421875 0l0 5.0625zm16.199783 -0.328125l5.015625 6.5l-1.796875 0l-4.09375 -5.390625l-4.0625 5.390625l-1.8125 0l5.015625 -6.5l-4.671875 -6.078125l1.8125 0l3.71875 4.9375l3.75 -4.9375l1.796875 0l-4.671875 6.078125z" fill-rule="nonzero"></path><path fill="#f4cccc" d="m104.461945 380.31497l128.62991 0l0 53.51181l-128.62991 0z" fill-rule="nonzero"></path><path stroke="#000000" stroke-width="1.0" stroke-linejoin="round" stroke-linecap="butt" d="m104.461945 380.31497l128.62991 0l0 53.51181l-128.62991 0z" fill-rule="nonzero"></path><path fill="#000000" d="m122.84761 401.55524l0 4.21875l6.984375 0l0 1.375l-6.984375 0l0 4.234375l7.828125 0l0 1.375l-9.265625 0l0 -12.578125l9.265625 0l0 1.375l-7.828125 0zm10.639877 11.203125l0 -8.25l-1.9375 0l0 -1.25l1.9375 0l0 -3.40625l1.421875 0l0 3.40625l2.1875 0l0 1.25l-2.1875 0l0 8.25l-1.421875 0zm6.4725647 -13.296875l0 5.28125q0.515625 -0.6875 1.25 -1.15625q0.75 -0.484375 1.703125 -0.484375q0.953125 0 1.625 0.265625q0.6875 0.265625 1.203125 0.796875q1.171875 1.171875 1.171875 3.0625l0 5.53125l-1.421875 0l0 -5.484375q0 -1.3125 -0.75 -2.09375q-0.734375 -0.78125 -1.90625 -0.78125q-1.203125 0 -2.03125 0.796875q-0.84375 0.8125 -0.84375 2.09375l0 5.46875l-1.421875 0l0 -13.296875l1.421875 0zm13.371933 12.15625q1.921875 0 2.765625 -1.59375l1.546875 0q-0.484375 1.296875 -1.5625 2.09375q-1.078125 0.796875 -2.765625 0.796875q-2.140625 0 -3.5 -1.421875q-1.3125 -1.390625 -1.3125 -3.484375q0 -2.109375 1.265625 -3.484375q1.328125 -1.421875 3.453125 -1.421875q2.125 0 3.453125 1.421875q1.25 1.375 1.25 3.484375l0 0.5625l-7.953125 0q0.15625 1.3125 1.046875 2.171875q0.90625 0.875 2.3125 0.875zm-0.109375 -7.21875q-1.3125 0 -2.203125 0.8125q-0.84375 0.78125 -1.03125 2.03125l6.46875 0q-0.203125 -1.25 -1.03125 -2.03125q-0.890625 -0.8125 -2.203125 -0.8125zm11.282166 -1.296875l0 1.421875l-0.171875 0q-1.53125 0 -2.5 1.25q-0.921875 1.171875 -0.921875 2.796875l0 4.1875l-1.421875 0l0 -9.5l1.421875 0l0 2.34375q0.453125 -1.484375 1.984375 -2.1875q0.625 -0.3125 1.515625 -0.3125l0.09375 0zm2.8426514 0.15625l0 1.484375q0.515625 -0.6875 1.25 -1.15625q0.75 -0.484375 1.703125 -0.484375q0.953125 0 1.625 0.265625q0.6875 0.265625 1.203125 0.796875q1.171875 1.171875 1.171875 3.0625l0 5.53125l-1.421875 0l0 -5.484375q0 -1.3125 -0.75 -2.09375q-0.734375 -0.78125 -1.90625 -0.78125q-1.203125 0 -2.03125 0.796875q-0.84375 0.8125 -0.84375 2.09375l0 5.46875l-1.421875 0l0 -9.5l1.421875 0zm13.371933 8.359375q1.921875 0 2.765625 -1.59375l1.546875 0q-0.484375 1.296875 -1.5625 2.09375q-1.078125 0.796875 -2.765625 0.796875q-2.140625 0 -3.5 -1.421875q-1.3125 -1.390625 -1.3125 -3.484375q0 -2.109375 1.265625 -3.484375q1.328125 -1.421875 3.453125 -1.421875q2.125 0 3.453125 1.421875q1.25 1.375 1.25 3.484375l0 0.5625l-7.953125 0q0.15625 1.3125 1.046875 2.171875q0.90625 0.875 2.3125 0.875zm-0.109375 -7.21875q-1.3125 0 -2.203125 0.8125q-0.84375 0.78125 -1.03125 2.03125l6.46875 0q-0.203125 -1.25 -1.03125 -2.03125q-0.890625 -0.8125 -2.203125 -0.8125zm7.2977905 8.359375l0 -8.25l-1.9375 0l0 -1.25l1.9375 0l0 -3.40625l1.421875 0l0 3.40625l2.1875 0l0 1.25l-2.1875 0l0 8.25l-1.421875 0zm18.25885 -11.203125l-4.390625 0l0 11.203125l-1.421875 0l0 -11.203125l-4.390625 0l0 -1.375l10.203125 0l0 1.375zm6.7595367 4.703125l5.015625 6.5l-1.796875 0l-4.09375 -5.390625l-4.0625 5.390625l-1.8125 0l5.015625 -6.5l-4.671875 -6.078125l1.8125 0l3.71875 4.9375l3.75 -4.9375l1.796875 0l-4.671875 6.078125z" fill-rule="nonzero"></path><path fill="#cfe2f3" d="m301.72964 280.5748l128.62994 0l0 53.51181l-128.62994 0z" fill-rule="nonzero"></path><path stroke="#000000" stroke-width="1.0" stroke-linejoin="round" stroke-linecap="butt" d="m301.72964 280.5748l128.62994 0l0 53.51181l-128.62994 0z" fill-rule="nonzero"></path><path fill="#000000" d="m332.41913 313.01822l-1.4375 0l0 -12.578125l6.03125 0q1.921875 0 3.078125 1.0625q1.15625 1.046875 1.15625 2.875q0 2.359375 -1.953125 3.203125q-0.546875 0.25 -1.078125 0.359375l3.296875 5.078125l-1.6875 0l-3.046875 -4.828125l-4.359375 0l0 4.828125zm0 -6.171875l4.34375 0q2.015625 0 2.78125 -1.25q0.28125 -0.484375 0.28125 -1.21875q0 -1.203125 -0.828125 -1.890625q-0.8125 -0.703125 -2.15625 -0.703125l-4.421875 0l0 5.0625zm14.981018 5.03125q1.921875 0 2.765625 -1.59375l1.546875 0q-0.484375 1.296875 -1.5625 2.09375q-1.078125 0.796875 -2.765625 0.796875q-2.140625 0 -3.5 -1.421875q-1.3125 -1.390625 -1.3125 -3.484375q0 -2.109375 1.265625 -3.484375q1.328125 -1.421875 3.453125 -1.421875q2.125 0 3.453125 1.421875q1.25 1.375 1.25 3.484375l0 0.5625l-7.953125 0q0.15625 1.3125 1.046875 2.171875q0.90625 0.875 2.3125 0.875zm-0.109375 -7.21875q-1.3125 0 -2.203125 0.8125q-0.84375 0.78125 -1.03125 2.03125l6.46875 0q-0.203125 -1.25 -1.03125 -2.03125q-0.890625 -0.8125 -2.203125 -0.8125zm10.657166 7.21875q0.90625 0 1.609375 -0.515625q0.703125 -0.515625 1.03125 -1.328125l1.53125 0q-0.4375 1.40625 -1.59375 2.265625q-1.21875 0.875 -2.890625 0.875q-2.078125 0 -3.390625 -1.421875q-1.28125 -1.390625 -1.28125 -3.484375q0 -2.09375 1.28125 -3.484375q1.3125 -1.421875 3.390625 -1.421875q1.671875 0 2.890625 0.875q1.15625 0.859375 1.59375 2.265625l-1.53125 0q-0.328125 -0.8125 -1.03125 -1.328125q-0.703125 -0.515625 -1.609375 -0.515625q-0.90625 0 -1.546875 0.28125q-0.640625 0.28125 -1.078125 0.78125q-0.921875 1.03125 -0.921875 2.546875q0 1.515625 0.921875 2.546875q0.953125 1.0625 2.625 1.0625zm9.992737 0q1.921875 0 2.765625 -1.59375l1.546875 0q-0.484375 1.296875 -1.5625 2.09375q-1.078125 0.796875 -2.765625 0.796875q-2.140625 0 -3.4999695 -1.421875q-1.3125 -1.390625 -1.3125 -3.484375q0 -2.109375 1.265625 -3.484375q1.328125 -1.421875 3.4530945 -1.421875q2.125 0 3.453125 1.421875q1.25 1.375 1.25 3.484375l0 0.5625l-7.9530945 0q0.15625 1.3125 1.046875 2.171875q0.9062195 0.875 2.3124695 0.875zm-0.109375 -7.21875q-1.3125 0 -2.2030945 0.8125q-0.84375 0.78125 -1.03125 2.03125l6.4687195 0q-0.203125 -1.25 -1.03125 -2.03125q-0.890625 -0.8125 -2.203125 -0.8125zm6.2665405 -1.140625l1.421875 0l0 9.5l-1.421875 0l0 -9.5zm1.484375 -3.453125l0 1.859375l-1.546875 0l0 -1.859375l1.546875 0zm10.308929 3.453125l-3.71875 9.5l-1.671875 0l-3.71875 -9.5l1.5625 0l3.0 7.984375l2.984375 -7.984375l1.5625 0zm5.3885193 8.359375q1.921875 0 2.765625 -1.59375l1.546875 0q-0.484375 1.296875 -1.5625 2.09375q-1.078125 0.796875 -2.765625 0.796875q-2.140625 0 -3.5 -1.421875q-1.3125 -1.390625 -1.3125 -3.484375q0 -2.109375 1.265625 -3.484375q1.328125 -1.421875 3.453125 -1.421875q2.125 0 3.453125 1.421875q1.25 1.375 1.25 3.484375l0 0.5625l-7.953125 0q0.15625 1.3125 1.046875 2.171875q0.90625 0.875 2.3125 0.875zm-0.109375 -7.21875q-1.3125 0 -2.203125 0.8125q-0.84375 0.78125 -1.03125 2.03125l6.46875 0q-0.203125 -1.25 -1.03125 -2.03125q-0.890625 -0.8125 -2.203125 -0.8125zm11.282166 -1.296875l0 1.421875l-0.171875 0q-1.53125 0 -2.5 1.25q-0.921875 1.171875 -0.921875 2.796875l0 4.1875l-1.421875 0l0 -9.5l1.421875 0l0 2.34375q0.453125 -1.484375 1.984375 -2.1875q0.625 -0.3125 1.515625 -0.3125l0.09375 0z" fill-rule="nonzero"></path><path fill="#f4cccc" d="m301.72964 380.31497l128.62994 0l0 53.51181l-128.62994 0z" fill-rule="nonzero"></path><path stroke="#000000" stroke-width="1.0" stroke-linejoin="round" stroke-linecap="butt" d="m301.72964 380.31497l128.62994 0l0 53.51181l-128.62994 0z" fill-rule="nonzero"></path><path fill="#000000" d="m338.8525 402.1021q-0.359375 0.3125 -0.484375 0.703125q-0.125 0.375 -0.125 0.8125q0 0.421875 0.359375 0.78125q0.375 0.359375 0.984375 0.609375q0.609375 0.25 1.390625 0.4375q0.78125 0.1875 1.578125 0.390625q0.8125 0.203125 1.59375 0.453125q0.78125 0.25 1.390625 0.65625q1.34375 0.859375 1.34375 2.328125q0 1.78125 -1.328125 2.71875q-1.3125 0.921875 -3.640625 0.921875q-2.640625 0 -4.03125 -1.109375q-1.234375 -0.984375 -1.40625 -2.8125l1.484375 0q0.078125 1.296875 1.25 1.984375q1.03125 0.578125 2.71875 0.578125q3.53125 0 3.53125 -2.21875q0 -0.765625 -0.640625 -1.1875q-0.625 -0.4375 -1.59375 -0.71875q-0.953125 -0.296875 -2.0625 -0.546875q-1.109375 -0.25 -2.078125 -0.625q-0.953125 -0.390625 -1.59375 -1.03125q-0.640625 -0.640625 -0.640625 -1.71875q0 -1.546875 1.171875 -2.515625q1.1875 -0.96875 3.5625 -0.96875q2.390625 0 3.703125 1.109375q1.203125 0.96875 1.28125 2.484375l-1.46875 0q-0.1875 -1.5625 -2.015625 -2.0625q-0.640625 -0.203125 -1.609375 -0.203125q-0.953125 0 -1.609375 0.21875q-0.65625 0.21875 -1.015625 0.53125zm13.957977 9.515625q1.921875 0 2.765625 -1.59375l1.546875 0q-0.484375 1.296875 -1.5625 2.09375q-1.078125 0.796875 -2.765625 0.796875q-2.140625 0 -3.5 -1.421875q-1.3125 -1.390625 -1.3125 -3.484375q0 -2.109375 1.265625 -3.484375q1.328125 -1.421875 3.453125 -1.421875q2.125 0 3.453125 1.421875q1.25 1.375 1.25 3.484375l0 0.5625l-7.953125 0q0.15625 1.3125 1.046875 2.171875q0.90625 0.875 2.3125 0.875zm-0.109375 -7.21875q-1.3125 0 -2.203125 0.8125q-0.84375 0.78125 -1.03125 2.03125l6.46875 0q-0.203125 -1.25 -1.03125 -2.03125q-0.890625 -0.8125 -2.203125 -0.8125zm7.6884155 -1.140625l0 1.484375q0.515625 -0.6875 1.25 -1.15625q0.75 -0.484375 1.703125 -0.484375q0.953125 0 1.625 0.265625q0.6875 0.265625 1.203125 0.796875q1.171875 1.171875 1.171875 3.0625l0 5.53125l-1.421875 0l0 -5.484375q0 -1.3125 -0.75 -2.09375q-0.734375 -0.78125 -1.90625 -0.78125q-1.203125 0 -2.03125 0.796875q-0.84375 0.8125 -0.84375 2.09375l0 5.46875l-1.421875 0l0 -9.5l1.421875 0zm16.543793 7.984375q-1.140625 1.671875 -3.390625 1.671875q-2.0625 0 -3.34375 -1.421875q-1.265625 -1.40625 -1.265625 -3.484375q0 -2.078125 1.265625 -3.484375q1.28125 -1.421875 3.421875 -1.421875q2.15625 0 3.3125 1.6875l0 -5.328125l1.421875 0l0 13.296875l-1.421875 0l0 -1.515625zm-3.203125 0.375q1.53125 0 2.421875 -1.0625q0.859375 -1.015625 0.859375 -2.546875q0 -1.53125 -0.859375 -2.546875q-0.890625 -1.0625 -2.421875 -1.0625q-1.53125 0 -2.46875 1.0625q-0.890625 1.015625 -0.890625 2.546875q0 1.53125 0.890625 2.546875q0.9375 1.0625 2.46875 1.0625zm11.131714 0q1.921875 0 2.765625 -1.59375l1.546875 0q-0.484375 1.296875 -1.5625 2.09375q-1.078125 0.796875 -2.765625 0.796875q-2.140625 0 -3.5 -1.421875q-1.3125 -1.390625 -1.3125 -3.484375q0 -2.109375 1.265625 -3.484375q1.328125 -1.421875 3.453125 -1.421875q2.125 0 3.453125 1.421875q1.25 1.375 1.25 3.484375l0 0.5625l-7.953125 0q0.15625 1.3125 1.046875 2.171875q0.90625 0.875 2.3125 0.875zm-0.109375 -7.21875q-1.3125 0 -2.203125 0.8125q-0.84375 0.78125 -1.03125 2.03125l6.46875 0q-0.203125 -1.25 -1.03125 -2.03125q-0.890625 -0.8125 -2.203125 -0.8125zm11.282166 -1.296875l0 1.421875l-0.171875 0q-1.53125 0 -2.5 1.25q-0.921875 1.171875 -0.921875 2.796875l0 4.1875l-1.421875 0l0 -9.5l1.421875 0l0 2.34375q0.453125 -1.484375 1.984375 -2.1875q0.625 -0.3125 1.515625 -0.3125l0.09375 0z" fill-rule="nonzero"></path><path fill="#cfe2f3" d="m301.72964 164.49081l128.62994 0l0 53.51181l-128.62994 0z" fill-rule="nonzero"></path><path stroke="#000000" stroke-width="1.0" stroke-linejoin="round" stroke-linecap="butt" d="m301.72964 164.49081l128.62994 0l0 53.51181l-128.62994 0z" fill-rule="nonzero"></path><path fill="#000000" d="m343.81097 195.69984q1.359375 0 2.375 -0.6875q1.015625 -0.6875 1.5 -1.84375l1.5 0q-0.625 1.796875 -2.0625 2.8125q-1.546875 1.109375 -3.625 1.109375q-2.765625 0 -4.46875 -1.890625q-1.625 -1.796875 -1.625 -4.546875q0 -2.765625 1.625 -4.5625q1.703125 -1.890625 4.46875 -1.890625q2.078125 0 3.625 1.109375q1.4375 1.015625 2.0625 2.8125l-1.5 0q-0.484375 -1.15625 -1.5 -1.84375q-1.015625 -0.6875 -2.375 -0.6875q-1.34375 0 -2.234375 0.390625q-0.890625 0.390625 -1.5 1.078125q-1.234375 1.375 -1.234375 3.59375q0 2.203125 1.234375 3.578125q1.28125 1.46875 3.734375 1.46875zm8.700928 1.234375l-1.4375 0l0 -12.578125l6.03125 0q1.921875 0 3.078125 1.0625q1.15625 1.046875 1.15625 2.875q0 2.359375 -1.953125 3.203125q-0.546875 0.25 -1.078125 0.359375l3.296875 5.078125l-1.6875 0l-3.046875 -4.828125l-4.359375 0l0 4.828125zm0 -6.171875l4.34375 0q2.015625 0 2.78125 -1.25q0.28125 -0.484375 0.28125 -1.21875q0 -1.203125 -0.828125 -1.890625q-0.8125 -0.703125 -2.15625 -0.703125l-4.421875 0l0 5.0625zm16.652924 4.9375q1.359375 0 2.375 -0.6875q1.015625 -0.6875 1.5 -1.84375l1.5 0q-0.625 1.796875 -2.0625 2.8125q-1.546875 1.109375 -3.625 1.109375q-2.765625 0 -4.46875 -1.890625q-1.625 -1.796875 -1.625 -4.546875q0 -2.765625 1.625 -4.5625q1.703125 -1.890625 4.46875 -1.890625q2.078125 0 3.625 1.109375q1.4375 1.015625 2.0625 2.8125l-1.5 0q-0.484375 -1.15625 -1.5 -1.84375q-1.015625 -0.6875 -2.375 -0.6875q-1.34375 0 -2.234375 0.390625q-0.890625 0.390625 -1.5 1.078125q-1.234375 1.375 -1.234375 3.59375q0 2.203125 1.234375 3.578125q1.28125 1.46875 3.734375 1.46875zm12.388428 -11.34375l0 12.578125l-1.4375 0l0 -11.203125l-2.65625 0l0 -1.375l4.09375 0zm11.448456 2.921875q-0.53125 -1.6875 -2.25 -1.6875q-1.6875 0 -2.546875 1.5q-0.8125 1.328125 -0.8125 3.609375q0.46875 -0.796875 1.34375 -1.28125q0.890625 -0.5 1.859375 -0.5q0.984375 0 1.765625 0.3125q0.78125 0.296875 1.34375 0.828125q1.25 1.171875 1.25 2.9375q0 1.734375 -1.265625 2.9375q-1.234375 1.15625 -3.0625 1.15625q-2.296875 0 -3.484375 -1.65625q-1.171875 -1.671875 -1.171875 -4.78125q0 -4.65625 2.6875 -6.0q0.890625 -0.453125 1.9375 -0.453125q1.0625 0 1.71875 0.265625q0.671875 0.265625 1.125 0.703125q0.921875 0.84375 1.15625 2.109375l-1.59375 0zm-2.375 2.984375q-0.609375 0 -1.140625 0.203125q-0.515625 0.1875 -0.90625 0.546875q-0.859375 0.734375 -0.859375 1.890625q0 1.21875 0.859375 2.015625q0.796875 0.78125 2.046875 0.78125q1.21875 0 2.0625 -0.765625q0.84375 -0.78125 0.84375 -1.9375q0 -1.15625 -0.84375 -1.953125q-0.859375 -0.78125 -2.0625 -0.78125z" fill-rule="nonzero"></path><path fill="#f4cccc" d="m301.72964 496.39896l128.62994 0l0 53.51181l-128.62994 0z" fill-rule="nonzero"></path><path stroke="#000000" stroke-width="1.0" stroke-linejoin="round" stroke-linecap="butt" d="m301.72964 496.39896l128.62994 0l0 53.51181l-128.62994 0z" fill-rule="nonzero"></path><path fill="#000000" d="m343.81097 527.608q1.359375 0 2.375 -0.6875q1.015625 -0.6875 1.5 -1.84375l1.5 0q-0.625 1.796875 -2.0625 2.8125q-1.546875 1.109375 -3.625 1.109375q-2.765625 0 -4.46875 -1.890625q-1.625 -1.796875 -1.625 -4.546875q0 -2.765625 1.625 -4.5625q1.703125 -1.890625 4.46875 -1.890625q2.078125 0 3.625 1.109375q1.4375 1.015625 2.0625 2.8125l-1.5 0q-0.484375 -1.15625 -1.5 -1.84375q-1.015625 -0.6875 -2.375 -0.6875q-1.34375 0 -2.234375 0.390625q-0.890625 0.390625 -1.5 1.078125q-1.234375 1.375 -1.234375 3.59375q0 2.203125 1.234375 3.578125q1.28125 1.46875 3.734375 1.46875zm8.700928 1.234375l-1.4375 0l0 -12.578125l6.03125 0q1.921875 0 3.078125 1.0625q1.15625 1.046875 1.15625 2.875q0 2.359375 -1.953125 3.203125q-0.546875 0.25 -1.078125 0.359375l3.296875 5.078125l-1.6875 0l-3.046875 -4.828125l-4.359375 0l0 4.828125zm0 -6.171875l4.34375 0q2.015625 0 2.78125 -1.25q0.28125 -0.484375 0.28125 -1.21875q0 -1.203125 -0.828125 -1.890625q-0.8125 -0.703125 -2.15625 -0.703125l-4.421875 0l0 5.0625zm16.652924 4.9375q1.359375 0 2.375 -0.6875q1.015625 -0.6875 1.5 -1.84375l1.5 0q-0.625 1.796875 -2.0625 2.8125q-1.546875 1.109375 -3.625 1.109375q-2.765625 0 -4.46875 -1.890625q-1.625 -1.796875 -1.625 -4.546875q0 -2.765625 1.625 -4.5625q1.703125 -1.890625 4.46875 -1.890625q2.078125 0 3.625 1.109375q1.4375 1.015625 2.0625 2.8125l-1.5 0q-0.484375 -1.15625 -1.5 -1.84375q-1.015625 -0.6875 -2.375 -0.6875q-1.34375 0 -2.234375 0.390625q-0.890625 0.390625 -1.5 1.078125q-1.234375 1.375 -1.234375 3.59375q0 2.203125 1.234375 3.578125q1.28125 1.46875 3.734375 1.46875zm12.950928 -5.46875q1.109375 0.421875 1.703125 1.25q0.609375 0.8125 0.609375 1.75q0 0.921875 -0.328125 1.625q-0.328125 0.6875 -0.921875 1.1875q-1.21875 1.046875 -3.015625 1.046875q-1.78125 0 -3.0625 -1.015625q-1.265625 -1.015625 -1.421875 -2.46875l1.4375 0q0.15625 0.875 1.015625 1.484375q0.875 0.609375 2.03125 0.609375q1.3125 0 2.109375 -0.6875q0.734375 -0.640625 0.734375 -1.65625q0 -0.984375 -0.75 -1.671875q-0.796875 -0.71875 -1.96875 -0.71875l-1.4375 0l0 -1.3125l1.265625 0q1.0 0 1.734375 -0.5625q0.734375 -0.578125 0.734375 -1.484375q0 -0.90625 -0.625 -1.453125q-0.625 -0.5625 -1.828125 -0.5625q-1.203125 0 -1.90625 0.53125q-0.6875 0.53125 -0.8125 1.25l-1.390625 0q0.125 -1.25 1.15625 -2.15625q1.140625 -1.015625 2.875 -1.015625q1.8125 0 2.90625 0.953125q1.0625 0.90625 1.0625 2.390625q0 0.875 -0.65625 1.71875q-0.5625 0.78125 -1.25 0.96875zm12.526581 -2.265625q0 0.8125 -0.484375 1.578125q-0.484375 0.765625 -1.234375 1.4375q-0.734375 0.65625 -1.609375 1.25q-0.859375 0.578125 -1.625 1.140625q-0.75 0.5625 -1.28125 1.109375q-0.515625 0.53125 -0.578125 1.078125l6.765625 0l0 1.375l-8.453125 0l0 -0.78125q0 -0.921875 0.515625 -1.6875q0.53125 -0.78125 1.3125 -1.453125q0.796875 -0.671875 1.703125 -1.265625q0.921875 -0.609375 1.703125 -1.21875q0.796875 -0.609375 1.3125 -1.234375q0.53125 -0.625 0.53125 -1.34375q0 -1.109375 -0.734375 -1.734375q-0.734375 -0.625 -2.046875 -0.625q-1.3125 0 -2.109375 0.5625q-0.78125 0.5625 -0.9375 1.625l-1.421875 0q0.15625 -1.59375 1.390625 -2.578125q1.234375 -1.0 2.984375 -1.0q2.0 0 3.171875 1.0625q1.125 1.03125 1.125 2.703125z" fill-rule="nonzero"></path><path fill="#d9ead3" d="m576.69556 280.5748l128.62988 0l0 154.96063l-128.62988 0z" fill-rule="nonzero"></path><path stroke="#000000" stroke-width="1.0" stroke-linejoin="round" stroke-linecap="butt" d="m576.69556 280.5748l128.62988 0l0 154.96063l-128.62988 0z" fill-rule="nonzero"></path><path fill="#000000" d="m601.85724 341.5551q1.125 0 2.15625 0.4375q1.046875 0.421875 1.84375 1.234375q1.765625 1.8125 1.765625 4.625q0 2.796875 -1.765625 4.609375q-0.796875 0.8125 -1.84375 1.25q-1.03125 0.421875 -2.15625 0.421875l-5.3125 0l0 -12.578125l5.3125 0zm-0.0625 11.234375q1.984375 0 3.21875 -1.46875q1.1875 -1.40625 1.1875 -3.46875q0 -2.078125 -1.1875 -3.484375q-1.234375 -1.46875 -3.21875 -1.46875l-3.8125 0l0 9.890625l3.8125 0zm14.446533 1.34375l0 -1.484375q-0.515625 0.6875 -1.265625 1.171875q-0.734375 0.46875 -1.6875 0.46875q-0.9375 0 -1.625 -0.265625q-0.6875 -0.265625 -1.203125 -0.796875q-1.171875 -1.171875 -1.171875 -3.0625l0 -5.53125l1.421875 0l0 5.484375q0 1.3125 0.734375 2.09375q0.75 0.78125 1.921875 0.78125q1.203125 0 2.046875 -0.796875q0.828125 -0.8125 0.828125 -2.09375l0 -5.46875l1.421875 0l0 9.5l-1.421875 0zm11.106323 -1.515625q-1.140625 1.671875 -3.390625 1.671875q-2.0625 0 -3.34375 -1.421875q-1.265625 -1.40625 -1.265625 -3.484375q0 -2.078125 1.265625 -3.484375q1.28125 -1.421875 3.421875 -1.421875q2.15625 0 3.3125 1.6875l0 -1.53125l1.421875 0l0 9.5l-1.421875 0l0 -1.515625zm-3.203125 0.375q1.53125 0 2.421875 -1.0625q0.859375 -1.015625 0.859375 -2.546875q0 -1.53125 -0.859375 -2.546875q-0.890625 -1.0625 -2.421875 -1.0625q-1.53125 0 -2.46875 1.0625q-0.890625 1.015625 -0.890625 2.546875q0 1.53125 0.890625 2.546875q0.9375 1.0625 2.46875 1.0625zm8.319214 1.140625l-1.421875 0l0 -13.296875l1.421875 0l0 13.296875zm2.168274 -6.3125l4.75 0l0 1.390625l-4.75 0l0 -1.390625zm12.782227 5.078125q1.359375 0 2.375 -0.6875q1.015625 -0.6875 1.5 -1.84375l1.5 0q-0.625 1.796875 -2.0625 2.8125q-1.546875 1.109375 -3.625 1.109375q-2.765625 0 -4.46875 -1.890625q-1.625 -1.796875 -1.625 -4.546875q0 -2.765625 1.625 -4.5625q1.703125 -1.890625 4.46875 -1.890625q2.078125 0 3.625 1.109375q1.4375 1.015625 2.0625 2.8125l-1.5 0q-0.484375 -1.15625 -1.5 -1.84375q-1.015625 -0.6875 -2.375 -0.6875q-1.34375 0 -2.234375 0.390625q-0.890625 0.390625 -1.5 1.078125q-1.234375 1.375 -1.234375 3.59375q0 2.203125 1.234375 3.578125q1.28125 1.46875 3.734375 1.46875zm8.388428 1.234375l-1.421875 0l0 -13.296875l1.421875 0l0 13.296875zm6.52771 -9.65625q2.125 0 3.453125 1.421875q1.25 1.375 1.25 3.484375q0 2.109375 -1.25 3.484375q-1.328125 1.421875 -3.453125 1.421875q-2.125 0 -3.453125 -1.421875q-1.265625 -1.375 -1.265625 -3.484375q0 -2.109375 1.265625 -3.484375q1.328125 -1.421875 3.453125 -1.421875zm0 8.515625q1.53125 0 2.4375 -1.0625q0.84375 -1.015625 0.84375 -2.546875q0 -1.53125 -0.84375 -2.546875q-0.90625 -1.0625 -2.4375 -1.0625q-1.546875 0 -2.4375 1.0625q-0.84375 1.015625 -0.84375 2.546875q0 1.53125 0.84375 2.546875q0.890625 1.0625 2.4375 1.0625zm10.78772 0q0.90625 0 1.609375 -0.515625q0.703125 -0.515625 1.03125 -1.328125l1.53125 0q-0.4375 1.40625 -1.59375 2.265625q-1.21875 0.875 -2.890625 0.875q-2.078125 0 -3.390625 -1.421875q-1.28125 -1.390625 -1.28125 -3.484375q0 -2.09375 1.28125 -3.484375q1.3125 -1.421875 3.390625 -1.421875q1.671875 0 2.890625 0.875q1.15625 0.859375 1.59375 2.265625l-1.53125 0q-0.328125 -0.8125 -1.03125 -1.328125q-0.703125 -0.515625 -1.609375 -0.515625q-0.90625 0 -1.546875 0.28125q-0.640625 0.28125 -1.078125 0.78125q-0.921875 1.03125 -0.921875 2.546875q0 1.515625 0.921875 2.546875q0.953125 1.0625 2.625 1.0625zm9.945862 -4.609375l4.09375 5.75l-1.75 0l-3.3125 -4.765625l-1.796875 1.765625l0 3.0l-1.421875 0l0 -13.296875l1.421875 0l0 8.515625l4.578125 -4.71875l2.0 0l-3.8125 3.75z" fill-rule="nonzero"></path><path fill="#000000" d="m626.0573 364.102q0 2.0625 -1.6875 2.828125q1.546875 0.515625 2.125 1.875q0.203125 0.53125 0.203125 1.234375q0 2.28125 -2.40625 3.046875q-0.796875 0.265625 -1.890625 0.265625l-5.96875 0l0 -12.578125l5.65625 0q2.03125 0 3.09375 1.109375q0.875 0.859375 0.875 2.21875zm-8.1875 2.296875l4.21875 0q1.75 0 2.328125 -1.203125q0.21875 -0.40625 0.21875 -0.890625q0 -0.484375 -0.140625 -0.859375q-0.125 -0.375 -0.421875 -0.65625q-0.625 -0.671875 -1.84375 -0.671875l-4.359375 0l0 4.28125zm4.6875 5.609375q1.3125 0 2.015625 -0.546875q0.703125 -0.546875 0.703125 -1.53125q0 -0.953125 -0.6875 -1.5625q-0.75 -0.671875 -2.1875 -0.671875l-4.53125 0l0 4.3125l4.6875 0zm7.662964 1.34375l-1.4375 0l0 -12.578125l6.03125 0q1.921875 0 3.078125 1.0625q1.15625 1.046875 1.15625 2.875q0 2.359375 -1.953125 3.203125q-0.546875 0.25 -1.078125 0.359375l3.296875 5.078125l-1.6875 0l-3.046875 -4.828125l-4.359375 0l0 4.828125zm0 -6.171875l4.34375 0q2.015625 0 2.78125 -1.25q0.28125 -0.484375 0.28125 -1.21875q0 -1.203125 -0.828125 -1.890625q-0.8125 -0.703125 -2.15625 -0.703125l-4.421875 0l0 5.0625zm22.027893 6.171875l-1.578125 0l-1.53125 -3.640625l-6.234375 0l-1.53125 3.640625l-1.578125 0l5.328125 -12.578125l1.796875 0l5.328125 12.578125zm-3.65625 -4.953125l-2.578125 -6.140625l-2.5625 6.140625l5.140625 0zm17.272278 -7.625l0 12.578125l-1.4375 0l0 -10.40625l-4.65625 5.984375l-4.71875 -5.984375l0 10.40625l-1.4375 0l0 -12.578125l1.65625 0l4.5 5.96875l4.4375 -5.96875l1.65625 0z" fill-rule="nonzero"></path><path fill="#000000" fill-opacity="0.0" d="m233.09186 307.33072l68.63779 0" fill-rule="nonzero"></path><path stroke="#000000" stroke-width="2.0" stroke-linejoin="round" stroke-linecap="butt" d="m233.09186 307.33072l61.78363 0" fill-rule="evenodd"></path><path fill="#000000" stroke="#000000" stroke-width="2.0" stroke-linecap="butt" d="m294.8755 307.33072l-2.249176 2.2491455l6.179535 -2.2491455l-6.179535 -2.249176z" fill-rule="evenodd"></path><path fill="#000000" fill-opacity="0.0" d="m301.72964 407.07086l-68.63779 0" fill-rule="nonzero"></path><path stroke="#000000" stroke-width="2.0" stroke-linejoin="round" stroke-linecap="butt" d="m301.72964 407.07086l-61.783615 0" fill-rule="evenodd"></path><path fill="#000000" stroke="#000000" stroke-width="2.0" stroke-linecap="butt" d="m239.94603 407.07086l2.249176 -2.249176l-6.179535 2.249176l6.179535 2.249176z" fill-rule="evenodd"></path><path fill="#000000" fill-opacity="0.0" d="m430.3596 307.33072l146.33072 0" fill-rule="nonzero"></path><path stroke="#000000" stroke-width="2.0" stroke-linejoin="round" stroke-linecap="butt" d="m430.3596 307.33072l139.47653 0" fill-rule="evenodd"></path><path fill="#000000" stroke="#000000" stroke-width="2.0" stroke-linecap="butt" d="m569.8361 307.33072l-2.2491455 2.2491455l6.1795044 -2.2491455l-6.1795044 -2.249176z" fill-rule="evenodd"></path><path fill="#000000" fill-opacity="0.0" d="m575.8399 407.07086l-145.48032 0" fill-rule="nonzero"></path><path stroke="#000000" stroke-width="2.0" stroke-linejoin="round" stroke-linecap="butt" d="m575.8399 407.07086l-138.62616 0" fill-rule="evenodd"></path><path fill="#000000" stroke="#000000" stroke-width="2.0" stroke-linecap="butt" d="m437.21375 407.07086l2.249176 -2.249176l-6.179535 2.249176l6.179535 2.249176z" fill-rule="evenodd"></path><path fill="#000000" fill-opacity="0.0" d="m354.90814 280.5853l0 -62.582672" fill-rule="nonzero"></path><path stroke="#000000" stroke-width="2.0" stroke-linejoin="round" stroke-linecap="butt" d="m354.90814 280.5853l0 -55.7285" fill-rule="evenodd"></path><path fill="#000000" stroke="#000000" stroke-width="2.0" stroke-linecap="butt" d="m354.90814 224.8568l2.249176 2.249176l-2.249176 -6.17955l-2.249176 6.17955z" fill-rule="evenodd"></path><path fill="#000000" fill-opacity="0.0" d="m377.1811 218.00787l0 62.582672" fill-rule="nonzero"></path><path stroke="#000000" stroke-width="2.0" stroke-linejoin="round" stroke-linecap="butt" d="m377.1811 218.00787l0 55.728516" fill-rule="evenodd"></path><path fill="#000000" stroke="#000000" stroke-width="2.0" stroke-linecap="butt" d="m377.1811 273.7364l-2.2491455 -2.249176l2.2491455 6.179535l2.249176 -6.179535z" fill-rule="evenodd"></path><path fill="#000000" fill-opacity="0.0" d="m354.90814 496.40945l0 -62.582672" fill-rule="nonzero"></path><path stroke="#000000" stroke-width="2.0" stroke-linejoin="round" stroke-linecap="butt" d="m354.90814 496.40945l0 -55.728516" fill-rule="evenodd"></path><path fill="#000000" stroke="#000000" stroke-width="2.0" stroke-linecap="butt" d="m354.90814 440.68094l2.249176 2.249176l-2.249176 -6.179535l-2.249176 6.179535z" fill-rule="evenodd"></path><path fill="#000000" fill-opacity="0.0" d="m377.1811 433.83203l0 62.582672" fill-rule="nonzero"></path><path stroke="#000000" stroke-width="2.0" stroke-linejoin="round" stroke-linecap="butt" d="m377.1811 433.83203l0 55.728485" fill-rule="evenodd"></path><path fill="#000000" stroke="#000000" stroke-width="2.0" stroke-linecap="butt" d="m377.1811 489.56052l-2.2491455 -2.2491455l2.2491455 6.179535l2.249176 -6.179535z" fill-rule="evenodd"></path><path fill="#000000" fill-opacity="0.0" d="m231.97769 277.0315l70.86615 0l0 30.299225l-70.86615 0z" fill-rule="nonzero"></path><path fill="#000000" d="m251.16402 287.02484q0.796875 -0.875 1.9375 -1.375q1.140625 -0.515625 2.34375 -0.515625q1.2187653 0 2.1093903 0.265625q0.90625 0.265625 1.625 0.734375q1.5 0.96875 2.203125 2.578125l-1.5625 0q-0.5625 -1.03125 -1.578125 -1.609375q-1.015625 -0.578125 -2.3125153 -0.578125q-1.296875 0 -2.21875 0.390625q-0.90625 0.390625 -1.53125 1.078125q-1.28125 1.40625 -1.28125 3.59375q0 2.203125 1.265625 3.578125q1.34375 1.46875 3.578125 1.46875q1.7812653 0 3.0781403 -1.109375q1.359375 -1.15625 1.359375 -3.046875l-4.5937653 0l0 -1.296875l5.9062653 0l0 6.6875l-1.3125 0l0 -2.21875q-1.078125 1.625 -3.0 2.1875q-0.703125 0.1875 -1.8593903 0.1875q-1.140625 0 -2.28125 -0.5q-1.140625 -0.515625 -1.9375 -1.390625q-1.640625 -1.78125 -1.640625 -4.546875q0 -2.75 1.703125 -4.5625zm24.83223 -1.734375l0 12.578125l-1.4375 0l0 -10.40625l-4.65625 5.984375l-4.71875 -5.984375l0 10.40625l-1.4375 0l0 -12.578125l1.65625 0l4.5 5.96875l4.4375 -5.96875l1.65625 0zm4.2244263 12.578125l-1.4375 0l0 -12.578125l1.4375 0l0 12.578125zm4.4215393 0l-1.4375 0l0 -12.578125l1.4375 0l0 12.578125z" fill-rule="nonzero"></path><path fill="#000000" fill-opacity="0.0" d="m231.97769 376.77167l70.86615 0l0 30.299194l-70.86615 0z" fill-rule="nonzero"></path><path fill="#000000" d="m251.16402 386.765q0.796875 -0.875 1.9375 -1.375q1.140625 -0.515625 2.34375 -0.515625q1.2187653 0 2.1093903 0.265625q0.90625 0.265625 1.625 0.734375q1.5 0.96875 2.203125 2.578125l-1.5625 0q-0.5625 -1.03125 -1.578125 -1.609375q-1.015625 -0.578125 -2.3125153 -0.578125q-1.296875 0 -2.21875 0.390625q-0.90625 0.390625 -1.53125 1.078125q-1.28125 1.40625 -1.28125 3.59375q0 2.203125 1.265625 3.578125q1.34375 1.46875 3.578125 1.46875q1.7812653 0 3.0781403 -1.109375q1.359375 -1.15625 1.359375 -3.046875l-4.5937653 0l0 -1.296875l5.9062653 0l0 6.6875l-1.3125 0l0 -2.21875q-1.078125 1.625 -3.0 2.1875q-0.703125 0.1875 -1.8593903 0.1875q-1.140625 0 -2.28125 -0.5q-1.140625 -0.515625 -1.9375 -1.390625q-1.640625 -1.78125 -1.640625 -4.546875q0 -2.75 1.703125 -4.5625zm24.83223 -1.734375l0 12.578125l-1.4375 0l0 -10.40625l-4.65625 5.984375l-4.71875 -5.984375l0 10.40625l-1.4375 0l0 -12.578125l1.65625 0l4.5 5.96875l4.4375 -5.96875l1.65625 0zm4.2244263 12.578125l-1.4375 0l0 -12.578125l1.4375 0l0 12.578125zm4.4215393 0l-1.4375 0l0 -12.578125l1.4375 0l0 12.578125z" fill-rule="nonzero"></path><path fill="#000000" fill-opacity="0.0" d="m301.3069 234.14699l53.637787 0l0 30.29921l-53.637787 0z" fill-rule="nonzero"></path><path fill="#000000" d="m318.92398 247.45284l5.671875 7.53125l-1.796875 0l-4.921875 -6.5625l-2.59375 2.4375l0 4.125l-1.4375 0l0 -12.578125l1.4375 0l0 6.5625l6.984375 -6.5625l2.015625 0l-5.359375 5.046875zm10.818024 6.390625q1.921875 0 2.765625 -1.59375l1.546875 0q-0.484375 1.296875 -1.5625 2.09375q-1.078125 0.796875 -2.765625 0.796875q-2.140625 0 -3.5 -1.421875q-1.3125 -1.390625 -1.3125 -3.484375q0 -2.109375 1.265625 -3.484375q1.328125 -1.421875 3.453125 -1.421875q2.125 0 3.453125 1.421875q1.25 1.375 1.25 3.484375l0 0.5625l-7.953125 0q0.15625 1.3125 1.046875 2.171875q0.90625 0.875 2.3125 0.875zm-0.109375 -7.21875q-1.3125 0 -2.203125 0.8125q-0.84375 0.78125 -1.03125 2.03125l6.46875 0q-0.203125 -1.25 -1.03125 -2.03125q-0.890625 -0.8125 -2.203125 -0.8125zm8.797791 12.125015l-1.546875 0l1.734375 -3.9062653l-3.875 -9.359375l1.578125 0l3.0625 7.796875l3.109375 -7.796875l1.5625 0l-5.625 13.26564z" fill-rule="nonzero"></path><path fill="#000000" fill-opacity="0.0" d="m377.1811 234.14699l92.8819 0l0 30.29921l-92.8819 0z" fill-rule="nonzero"></path><path fill="#000000" d="m398.9828 242.40596l0 12.578125l-1.421875 0l0 -5.609375l-7.3125 0l0 5.609375l-1.4375 0l0 -12.578125l1.4375 0l0 5.59375l7.3125 0l0 -5.59375l1.421875 0zm9.940918 11.0625q-1.140625 1.671875 -3.390625 1.671875q-2.0625 0 -3.34375 -1.421875q-1.265625 -1.40625 -1.265625 -3.484375q0 -2.078125 1.265625 -3.484375q1.28125 -1.421875 3.421875 -1.421875q2.15625 0 3.3125 1.6875l0 -1.53125l1.421875 0l0 9.5l-1.421875 0l0 -1.515625zm-3.203125 0.375q1.53125 0 2.421875 -1.0625q0.859375 -1.015625 0.859375 -2.546875q0 -1.53125 -0.859375 -2.546875q-0.890625 -1.0625 -2.421875 -1.0625q-1.53125 0 -2.46875 1.0625q-0.890625 1.015625 -0.890625 2.546875q0 1.53125 0.890625 2.546875q0.9375 1.0625 2.46875 1.0625zm12.491089 -5.8125q-0.203125 -1.484375 -2.40625 -1.484375q-2.1875 0 -2.1875 1.375q0 0.5625 0.46875 0.859375q0.46875 0.296875 1.171875 0.484375q0.703125 0.1875 1.53125 0.359375q0.828125 0.15625 1.53125 0.453125q0.703125 0.296875 1.15625 0.8125q0.46875 0.5 0.46875 1.390625q0 1.390625 -1.046875 2.125q-1.03125 0.734375 -2.828125 0.734375q-1.890625 0 -3.015625 -0.953125q-1.03125 -0.84375 -1.109375 -2.1875l1.484375 0q0.140625 1.3125 1.484375 1.765625q0.5 0.15625 0.984375 0.15625q0.484375 0 0.890625 -0.046875q0.421875 -0.0625 0.828125 -0.21875q0.90625 -0.359375 0.90625 -1.234375q0 -0.59375 -0.46875 -0.90625q-0.453125 -0.3125 -1.15625 -0.515625q-0.703125 -0.203125 -1.53125 -0.359375q-0.828125 -0.15625 -1.53125 -0.4375q-0.703125 -0.296875 -1.171875 -0.78125q-0.46875 -0.5 -0.46875 -1.375q0 -1.296875 0.9375 -2.0q0.953125 -0.71875 2.796875 -0.71875q1.734375 0 2.75 0.84375q0.828125 0.703125 0.96875 1.859375l-1.4375 0zm4.8204346 -6.34375l0 5.28125q0.515625 -0.6875 1.25 -1.15625q0.75 -0.484375 1.703125 -0.484375q0.953125 0 1.625 0.265625q0.6875 0.265625 1.203125 0.796875q1.171875 1.171875 1.171875 3.0625l0 5.53125l-1.421875 0l0 -5.484375q0 -1.3125 -0.75 -2.09375q-0.734375 -0.78125 -1.90625 -0.78125q-1.203125 0 -2.03125 0.796875q-0.84375 0.8125 -0.84375 2.09375l0 5.46875l-1.421875 0l0 -13.296875l1.421875 0zm13.325043 7.546875l4.09375 5.75l-1.75 0l-3.3125 -4.765625l-1.796875 1.765625l0 3.0l-1.421875 0l0 -13.296875l1.421875 0l0 8.515625l4.578125 -4.71875l2.0 0l-3.8125 3.75zm9.412323 4.609375q1.921875 0 2.765625 -1.59375l1.546875 0q-0.484375 1.296875 -1.5625 2.09375q-1.078125 0.796875 -2.765625 0.796875q-2.140625 0 -3.5 -1.421875q-1.3125 -1.390625 -1.3125 -3.484375q0 -2.109375 1.265625 -3.484375q1.328125 -1.421875 3.453125 -1.421875q2.125 0 3.453125 1.421875q1.25 1.375 1.25 3.484375l0 0.5625l-7.953125 0q0.15625 1.3125 1.046875 2.171875q0.90625 0.875 2.3125 0.875zm-0.109375 -7.21875q-1.3125 0 -2.203125 0.8125q-0.84375 0.78125 -1.03125 2.03125l6.46875 0q-0.203125 -1.25 -1.03125 -2.03125q-0.890625 -0.8125 -2.203125 -0.8125zm8.797791 12.125015l-1.546875 0l1.734375 -3.9062653l-3.875 -9.359375l1.578125 0l3.0625 7.796875l3.109375 -7.796875l1.5625 0l-5.625 13.26564z" fill-rule="nonzero"></path><path fill="#000000" fill-opacity="0.0" d="m297.42407 449.97113l57.480316 0l0 30.299225l-57.480316 0z" fill-rule="nonzero"></path><path fill="#000000" d="m311.52148 459.6051l0 4.359375l6.8125 0l0 1.390625l-6.8125 0l0 5.453125l-1.4375 0l0 -12.578125l9.09375 0l0 1.375l-7.65625 0zm15.048462 9.96875q1.359375 0 2.375 -0.6875q1.015625 -0.6875 1.5 -1.84375l1.5 0q-0.625 1.796875 -2.0625 2.8125q-1.546875 1.109375 -3.625 1.109375q-2.765625 0 -4.46875 -1.890625q-1.625 -1.796875 -1.625 -4.546875q0 -2.765625 1.625 -4.5625q1.703125 -1.890625 4.46875 -1.890625q2.078125 0 3.625 1.109375q1.4375 1.015625 2.0625 2.8125l-1.5 0q-0.484375 -1.15625 -1.5 -1.84375q-1.015625 -0.6875 -2.375 -0.6875q-1.34375 0 -2.234375 0.390625q-0.890625 0.390625 -1.5 1.078125q-1.234375 1.375 -1.234375 3.59375q0 2.203125 1.234375 3.578125q1.28125 1.46875 3.734375 1.46875zm8.716583 -9.421875q-0.359375 0.3125 -0.484375 0.703125q-0.125 0.375 -0.125 0.8125q0 0.421875 0.359375 0.78125q0.375 0.359375 0.984375 0.609375q0.609375 0.25 1.390625 0.4375q0.78125 0.1875 1.578125 0.390625q0.8125 0.203125 1.59375 0.453125q0.78125 0.25 1.390625 0.65625q1.34375 0.859375 1.34375 2.328125q0 1.78125 -1.328125 2.71875q-1.3125 0.921875 -3.640625 0.921875q-2.640625 0 -4.03125 -1.109375q-1.234375 -0.984375 -1.40625 -2.8125l1.484375 0q0.078125 1.296875 1.25 1.984375q1.03125 0.578125 2.71875 0.578125q3.53125 0 3.53125 -2.21875q0 -0.765625 -0.640625 -1.1875q-0.625 -0.4375 -1.59375 -0.71875q-0.953125 -0.296875 -2.0625 -0.546875q-1.109375 -0.25 -2.078125 -0.625q-0.953125 -0.390625 -1.59375 -1.03125q-0.640625 -0.640625 -0.640625 -1.71875q0 -1.546875 1.171875 -2.515625q1.1875 -0.96875 3.5625 -0.96875q2.390625 0 3.703125 1.109375q1.203125 0.96875 1.28125 2.484375l-1.46875 0q-0.1875 -1.5625 -2.015625 -2.0625q-0.640625 -0.203125 -1.609375 -0.203125q-0.953125 0 -1.609375 0.21875q-0.65625 0.21875 -1.015625 0.53125z" fill-rule="nonzero"></path><path fill="#000000" fill-opacity="0.0" d="m377.1811 449.97113l100.22049 0l0 30.299225l-100.22049 0z" fill-rule="nonzero"></path><path fill="#000000" d="m394.33746 449.99573l0 4.21875l6.984375 0l0 1.375l-6.984375 0l0 4.234375l7.828125 0l0 1.375l-9.265625 0l0 -12.578125l9.265625 0l0 1.375l-7.828125 0zm10.639893 11.203125l0 -8.25l-1.9375 0l0 -1.25l1.9375 0l0 -3.40625l1.421875 0l0 3.40625l2.1875 0l0 1.25l-2.1875 0l0 8.25l-1.421875 0zm6.4725647 -13.296875l0 5.28125q0.515625 -0.6875 1.25 -1.15625q0.75 -0.484375 1.703125 -0.484375q0.953125 0 1.625 0.265625q0.6875 0.265625 1.203125 0.796875q1.171875 1.171875 1.171875 3.0625l0 5.53125l-1.421875 0l0 -5.484375q0 -1.3125 -0.75 -2.09375q-0.734375 -0.78125 -1.90625 -0.78125q-1.203125 0 -2.03125 0.796875q-0.84375 0.8125 -0.84375 2.09375l0 5.46875l-1.421875 0l0 -13.296875l1.421875 0zm13.371918 12.15625q1.921875 0 2.765625 -1.59375l1.546875 0q-0.484375 1.296875 -1.5625 2.09375q-1.078125 0.796875 -2.765625 0.796875q-2.140625 0 -3.5 -1.421875q-1.3125 -1.390625 -1.3125 -3.484375q0 -2.109375 1.265625 -3.484375q1.328125 -1.421875 3.453125 -1.421875q2.125 0 3.453125 1.421875q1.25 1.375 1.25 3.484375l0 0.5625l-7.953125 0q0.15625 1.3125 1.046875 2.171875q0.90625 0.875 2.3125 0.875zm-0.109375 -7.21875q-1.3125 0 -2.203125 0.8125q-0.84375 0.78125 -1.03125 2.03125l6.46875 0q-0.203125 -1.25 -1.03125 -2.03125q-0.890625 -0.8125 -2.203125 -0.8125zm11.282166 -1.296875l0 1.421875l-0.171875 0q-1.53125 0 -2.5 1.25q-0.921875 1.171875 -0.921875 2.796875l0 4.1875l-1.421875 0l0 -9.5l1.421875 0l0 2.34375q0.453125 -1.484375 1.984375 -2.1875q0.625 -0.3125 1.515625 -0.3125l0.09375 0zm2.8426514 0.15625l0 1.484375q0.515625 -0.6875 1.25 -1.15625q0.75 -0.484375 1.703125 -0.484375q0.953125 0 1.625 0.265625q0.6875 0.265625 1.203125 0.796875q1.171875 1.171875 1.171875 3.0625l0 5.53125l-1.421875 0l0 -5.484375q0 -1.3125 -0.75 -2.09375q-0.734375 -0.78125 -1.90625 -0.78125q-1.203125 0 -2.03125 0.796875q-0.84375 0.8125 -0.84375 2.09375l0 5.46875l-1.421875 0l0 -9.5l1.421875 0zm13.371948 8.359375q1.921875 0 2.765625 -1.59375l1.546875 0q-0.484375 1.296875 -1.5625 2.09375q-1.078125 0.796875 -2.765625 0.796875q-2.140625 0 -3.5 -1.421875q-1.3125 -1.390625 -1.3125 -3.484375q0 -2.109375 1.265625 -3.484375q1.328125 -1.421875 3.453125 -1.421875q2.125 0 3.453125 1.421875q1.25 1.375 1.25 3.484375l0 0.5625l-7.953125 0q0.15625 1.3125 1.046875 2.171875q0.90625 0.875 2.3125 0.875zm-0.109375 -7.21875q-1.3125 0 -2.203125 0.8125q-0.84375 0.78125 -1.03125 2.03125l6.46875 0q-0.203125 -1.25 -1.03125 -2.03125q-0.890625 -0.8125 -2.203125 -0.8125zm7.2977905 8.359375l0 -8.25l-1.9375 0l0 -1.25l1.9375 0l0 -3.40625l1.421875 0l0 3.40625l2.1875 0l0 1.25l-2.1875 0l0 8.25l-1.421875 0z" fill-rule="nonzero"></path><path fill="#000000" d="m402.76077 469.21448l0 4.359375l6.8125 0l0 1.390625l-6.8125 0l0 5.453125l-1.4375 0l0 -12.578125l9.09375 0l0 1.375l-7.65625 0zm14.157837 1.546875l0 1.421875l-0.171875 0q-1.53125 0 -2.5 1.25q-0.921875 1.171875 -0.921875 2.796875l0 4.1875l-1.421875 0l0 -9.5l1.421875 0l0 2.34375q0.453125 -1.484375 1.984375 -2.1875q0.625 -0.3125 1.515625 -0.3125l0.09375 0zm8.827026 8.140625q-1.140625 1.671875 -3.390625 1.671875q-2.0625 0 -3.34375 -1.421875q-1.265625 -1.40625 -1.265625 -3.484375q0 -2.078125 1.265625 -3.484375q1.28125 -1.421875 3.421875 -1.421875q2.15625 0 3.3125 1.6875l0 -1.53125l1.421875 0l0 9.5l-1.421875 0l0 -1.515625zm-3.203125 0.375q1.53125 0 2.421875 -1.0625q0.859375 -1.015625 0.859375 -2.546875q0 -1.53125 -0.859375 -2.546875q-0.890625 -1.0625 -2.421875 -1.0625q-1.53125 0 -2.46875 1.0625q-0.890625 1.015625 -0.890625 2.546875q0 1.53125 0.890625 2.546875q0.9375 1.0625 2.46875 1.0625zm8.319214 -6.921875q0.953125 -1.59375 2.890625 -1.59375q0.953125 0 1.75 0.515625q0.8125 0.5 1.265625 1.40625q0.65625 -1.203125 2.015625 -1.703125q0.5625 -0.21875 1.25 -0.21875q0.6875 0 1.328125 0.28125q0.640625 0.28125 1.125 0.78125q1.078125 1.140625 1.078125 2.859375l0 5.734375l-1.4375 0l0 -5.703125q0 -1.171875 -0.65625 -1.9375q-0.671875 -0.71875 -1.6875 -0.71875q-1.09375 0 -1.8125 0.703125q-0.765625 0.71875 -0.765625 1.96875l0 5.6875l-1.421875 0l0 -5.703125q0 -1.171875 -0.65625 -1.9375q-0.671875 -0.71875 -1.703125 -0.71875q-1.078125 0 -1.796875 0.703125q-0.765625 0.71875 -0.765625 1.96875l0 5.6875l-1.421875 0l0 -9.5l1.421875 0l0 1.4375zm19.006134 6.921875q1.921875 0 2.765625 -1.59375l1.546875 0q-0.484375 1.296875 -1.5625 2.09375q-1.078125 0.796875 -2.765625 0.796875q-2.140625 0 -3.5 -1.421875q-1.3125 -1.390625 -1.3125 -3.484375q0 -2.109375 1.265625 -3.484375q1.328125 -1.421875 3.453125 -1.421875q2.125 0 3.453125 1.421875q1.25 1.375 1.25 3.484375l0 0.5625l-7.953125 0q0.15625 1.3125 1.046875 2.171875q0.90625 0.875 2.3125 0.875zm-0.109375 -7.21875q-1.3125 0 -2.203125 0.8125q-0.84375 0.78125 -1.03125 2.03125l6.46875 0q-0.203125 -1.25 -1.03125 -2.03125q-0.890625 -0.8125 -2.203125 -0.8125z" fill-rule="nonzero"></path><path fill="#000000" fill-opacity="0.0" d="m456.64566 269.0315l92.88193 0l0 30.299225l-92.88193 0z" fill-rule="nonzero"></path><path fill="#000000" d="m473.10886 269.41547q0.796875 -0.875 1.9375 -1.375q1.140625 -0.515625 2.34375 -0.515625q1.21875 0 2.109375 0.265625q0.90625 0.265625 1.625 0.734375q1.5 0.96875 2.203125 2.578125l-1.5625 0q-0.5625 -1.03125 -1.578125 -1.609375q-1.015625 -0.578125 -2.3125 -0.578125q-1.296875 0 -2.21875 0.390625q-0.90625 0.390625 -1.53125 1.078125q-1.28125 1.40625 -1.28125 3.59375q0 2.203125 1.265625 3.578125q1.34375 1.46875 3.578125 1.46875q1.78125 0 3.078125 -1.109375q1.359375 -1.15625 1.359375 -3.046875l-4.59375 0l0 -1.296875l5.90625 0l0 6.6875l-1.3125 0l0 -2.21875q-1.078125 1.625 -3.0 2.1875q-0.703125 0.1875 -1.859375 0.1875q-1.140625 0 -2.28125 -0.5q-1.140625 -0.515625 -1.9375 -1.390625q-1.640625 -1.78125 -1.640625 -4.546875q0 -2.75 1.703125 -4.5625zm16.519714 9.703125q1.921875 0 2.765625 -1.59375l1.546875 0q-0.484375 1.296875 -1.5625 2.09375q-1.078125 0.796875 -2.765625 0.796875q-2.140625 0 -3.5 -1.421875q-1.3125 -1.390625 -1.3125 -3.484375q0 -2.109375 1.265625 -3.484375q1.328125 -1.421875 3.453125 -1.421875q2.125 0 3.453125 1.421875q1.25 1.375 1.25 3.484375l0 0.5625l-7.953125 0q0.15625 1.3125 1.046875 2.171875q0.90625 0.875 2.3125 0.875zm-0.109375 -7.21875q-1.3125 0 -2.203125 0.8125q-0.84375 0.78125 -1.03125 2.03125l6.46875 0q-0.203125 -1.25 -1.03125 -2.03125q-0.890625 -0.8125 -2.203125 -0.8125zm7.2977905 8.359375l0 -8.25l-1.9375 0l0 -1.25l1.9375 0l0 -3.40625l1.421875 0l0 3.40625l2.1875 0l0 1.25l-2.1875 0l0 8.25l-1.421875 0zm10.17569 -12.921875l-4.34375 13.53125l-1.328125 0l4.34375 -13.53125l1.328125 0zm3.5464783 2.265625q-0.359375 0.3125 -0.484375 0.703125q-0.125 0.375 -0.125 0.8125q0 0.421875 0.359375 0.78125q0.375 0.359375 0.984375 0.609375q0.609375 0.25 1.3905945 0.4375q0.78125 0.1875 1.578125 0.390625q0.8125 0.203125 1.59375 0.453125q0.78125 0.25 1.390625 0.65625q1.34375 0.859375 1.34375 2.328125q0 1.78125 -1.328125 2.71875q-1.3125 0.921875 -3.640625 0.921875q-2.6405945 0 -4.0312195 -1.109375q-1.234375 -0.984375 -1.40625 -2.8125l1.484375 0q0.078125 1.296875 1.25 1.984375q1.03125 0.578125 2.7187195 0.578125q3.53125 0 3.53125 -2.21875q0 -0.765625 -0.640625 -1.1875q-0.625 -0.4375 -1.59375 -0.71875q-0.953125 -0.296875 -2.0625 -0.546875q-1.1093445 -0.25 -2.0780945 -0.625q-0.953125 -0.390625 -1.59375 -1.03125q-0.640625 -0.640625 -0.640625 -1.71875q0 -1.546875 1.171875 -2.515625q1.1875 -0.96875 3.5624695 -0.96875q2.390625 0 3.703125 1.109375q1.203125 0.96875 1.28125 2.484375l-1.46875 0q-0.1875 -1.5625 -2.015625 -2.0625q-0.640625 -0.203125 -1.609375 -0.203125q-0.953125 0 -1.6093445 0.21875q-0.65625 0.21875 -1.015625 0.53125zm13.957977 9.515625q1.921875 0 2.765625 -1.59375l1.546875 0q-0.484375 1.296875 -1.5625 2.09375q-1.078125 0.796875 -2.765625 0.796875q-2.140625 0 -3.5 -1.421875q-1.3125 -1.390625 -1.3125 -3.484375q0 -2.109375 1.265625 -3.484375q1.328125 -1.421875 3.453125 -1.421875q2.125 0 3.453125 1.421875q1.25 1.375 1.25 3.484375l0 0.5625l-7.953125 0q0.15625 1.3125 1.046875 2.171875q0.90625 0.875 2.3125 0.875zm-0.109375 -7.21875q-1.3125 0 -2.203125 0.8125q-0.84375 0.78125 -1.03125 2.03125l6.46875 0q-0.203125 -1.25 -1.03125 -2.03125q-0.890625 -0.8125 -2.203125 -0.8125zm7.2977905 8.359375l0 -8.25l-1.9375 0l0 -1.25l1.9375 0l0 -3.40625l1.421875 0l0 3.40625l2.1875 0l0 1.25l-2.1875 0l0 8.25l-1.421875 0z" fill-rule="nonzero"></path><path fill="#000000" d="m471.05624 299.47797l-1.4375 0l0 -12.578125l6.03125 0q1.921875 0 3.078125 1.0625q1.15625 1.046875 1.15625 2.875q0 2.359375 -1.953125 3.203125q-0.546875 0.25 -1.078125 0.359375l3.296875 5.078125l-1.6875 0l-3.046875 -4.828125l-4.359375 0l0 4.828125zm0 -6.171875l4.34375 0q2.015625 0 2.78125 -1.25q0.28125 -0.484375 0.28125 -1.21875q0 -1.203125 -0.828125 -1.890625q-0.8125 -0.703125 -2.15625 -0.703125l-4.421875 0l0 5.0625zm14.981018 5.03125q1.921875 0 2.765625 -1.59375l1.546875 0q-0.484375 1.296875 -1.5625 2.09375q-1.078125 0.796875 -2.765625 0.796875q-2.140625 0 -3.5 -1.421875q-1.3125 -1.390625 -1.3125 -3.484375q0 -2.109375 1.265625 -3.484375q1.328125 -1.421875 3.453125 -1.421875q2.125 0 3.453125 1.421875q1.25 1.375 1.25 3.484375l0 0.5625l-7.953125 0q0.15625 1.3125 1.046875 2.171875q0.90625 0.875 2.3125 0.875zm-0.109375 -7.21875q-1.3125 0 -2.203125 0.8125q-0.84375 0.78125 -1.03125 2.03125l6.46875 0q-0.203125 -1.25 -1.03125 -2.03125q-0.890625 -0.8125 -2.203125 -0.8125zm13.672791 6.828125q-1.15625 1.6875 -3.390625 1.6875q-2.0625 0 -3.34375 -1.421875q-1.265625 -1.40625 -1.265625 -3.484375q0 -2.078125 1.265625 -3.484375q1.28125 -1.421875 3.4375 -1.421875q2.15625 0 3.296875 1.671875l0 -1.515625l1.421875 0l0 13.265625l-1.421875 0l0 -5.296875zm-3.203125 -6.828125q-1.53125 0 -2.46875 1.0625q-0.890625 1.015625 -0.890625 2.546875q0 1.53125 0.890625 2.546875q0.9375 1.0625 2.46875 1.0625q1.53125 0 2.421875 -1.0625q0.859375 -1.015625 0.859375 -2.546875q0 -1.53125 -0.859375 -2.546875q-0.890625 -1.0625 -2.421875 -1.0625zm13.756714 8.359375l0 -1.484375q-0.515625 0.6875 -1.265625 1.171875q-0.734375 0.46875 -1.6875 0.46875q-0.9375 0 -1.625 -0.265625q-0.6875 -0.265625 -1.203125 -0.796875q-1.171875 -1.171875 -1.171875 -3.0625l0 -5.53125l1.421875 0l0 5.484375q0 1.3125 0.734375 2.09375q0.75 0.78125 1.921875 0.78125q1.203125 0 2.046875 -0.796875q0.828125 -0.8125 0.828125 -2.09375l0 -5.46875l1.421875 0l0 9.5l-1.421875 0zm7.9344177 -1.140625q1.921875 0 2.765625 -1.59375l1.546875 0q-0.484375 1.296875 -1.5625 2.09375q-1.078125 0.796875 -2.765625 0.796875q-2.140625 0 -3.5 -1.421875q-1.3125 -1.390625 -1.3125 -3.484375q0 -2.109375 1.265625 -3.484375q1.328125 -1.421875 3.453125 -1.421875q2.125 0 3.453125 1.421875q1.25 1.375 1.25 3.484375l0 0.5625l-7.953125 0q0.15625 1.3125 1.046875 2.171875q0.90625 0.875 2.3125 0.875zm-0.109375 -7.21875q-1.3125 0 -2.203125 0.8125q-0.84375 0.78125 -1.03125 2.03125l6.46875 0q-0.203125 -1.25 -1.03125 -2.03125q-0.890625 -0.8125 -2.203125 -0.8125zm11.860291 1.40625q-0.203125 -1.484375 -2.40625 -1.484375q-2.1875 0 -2.1875 1.375q0 0.5625 0.46875 0.859375q0.46875 0.296875 1.171875 0.484375q0.703125 0.1875 1.53125 0.359375q0.828125 0.15625 1.53125 0.453125q0.703125 0.296875 1.15625 0.8125q0.46875 0.5 0.46875 1.390625q0 1.390625 -1.046875 2.125q-1.03125 0.734375 -2.828125 0.734375q-1.890625 0 -3.015625 -0.953125q-1.03125 -0.84375 -1.109375 -2.1875l1.484375 0q0.140625 1.3125 1.484375 1.765625q0.5 0.15625 0.984375 0.15625q0.484375 0 0.890625 -0.046875q0.421875 -0.0625 0.828125 -0.21875q0.90625 -0.359375 0.90625 -1.234375q0 -0.59375 -0.46875 -0.90625q-0.453125 -0.3125 -1.15625 -0.515625q-0.703125 -0.203125 -1.53125 -0.359375q-0.828125 -0.15625 -1.53125 -0.4375q-0.703125 -0.296875 -1.171875 -0.78125q-0.46875 -0.5 -0.46875 -1.375q0 -1.296875 0.9375 -2.0q0.953125 -0.71875 2.796875 -0.71875q1.734375 0 2.75 0.84375q0.828125 0.703125 0.96875 1.859375l-1.4375 0zm4.4298096 6.953125l0 -8.25l-1.9375 0l0 -1.25l1.9375 0l0 -3.40625l1.421875 0l0 3.40625l2.1875 0l0 1.25l-2.1875 0l0 8.25l-1.421875 0z" fill-rule="nonzero"></path><path fill="#000000" fill-opacity="0.0" d="m456.64566 368.1391l92.88193 0l0 30.299225l-92.88193 0z" fill-rule="nonzero"></path><path fill="#000000" d="m473.10886 368.5231q0.796875 -0.875 1.9375 -1.375q1.140625 -0.515625 2.34375 -0.515625q1.21875 0 2.109375 0.265625q0.90625 0.265625 1.625 0.734375q1.5 0.96875 2.203125 2.578125l-1.5625 0q-0.5625 -1.03125 -1.578125 -1.609375q-1.015625 -0.578125 -2.3125 -0.578125q-1.296875 0 -2.21875 0.390625q-0.90625 0.390625 -1.53125 1.078125q-1.28125 1.40625 -1.28125 3.59375q0 2.203125 1.265625 3.578125q1.34375 1.46875 3.578125 1.46875q1.78125 0 3.078125 -1.109375q1.359375 -1.15625 1.359375 -3.046875l-4.59375 0l0 -1.296875l5.90625 0l0 6.6875l-1.3125 0l0 -2.21875q-1.078125 1.625 -3.0 2.1875q-0.703125 0.1875 -1.859375 0.1875q-1.140625 0 -2.28125 -0.5q-1.140625 -0.515625 -1.9375 -1.390625q-1.640625 -1.78125 -1.640625 -4.546875q0 -2.75 1.703125 -4.5625zm16.519714 9.703125q1.921875 0 2.765625 -1.59375l1.546875 0q-0.484375 1.296875 -1.5625 2.09375q-1.078125 0.796875 -2.765625 0.796875q-2.140625 0 -3.5 -1.421875q-1.3125 -1.390625 -1.3125 -3.484375q0 -2.109375 1.265625 -3.484375q1.328125 -1.421875 3.453125 -1.421875q2.125 0 3.453125 1.421875q1.25 1.375 1.25 3.484375l0 0.5625l-7.953125 0q0.15625 1.3125 1.046875 2.171875q0.90625 0.875 2.3125 0.875zm-0.109375 -7.21875q-1.3125 0 -2.203125 0.8125q-0.84375 0.78125 -1.03125 2.03125l6.46875 0q-0.203125 -1.25 -1.03125 -2.03125q-0.890625 -0.8125 -2.203125 -0.8125zm7.2977905 8.359375l0 -8.25l-1.9375 0l0 -1.25l1.9375 0l0 -3.40625l1.421875 0l0 3.40625l2.1875 0l0 1.25l-2.1875 0l0 8.25l-1.421875 0zm10.17569 -12.921875l-4.34375 13.53125l-1.328125 0l4.34375 -13.53125l1.328125 0zm3.5464783 2.265625q-0.359375 0.3125 -0.484375 0.703125q-0.125 0.375 -0.125 0.8125q0 0.421875 0.359375 0.78125q0.375 0.359375 0.984375 0.609375q0.609375 0.25 1.3905945 0.4375q0.78125 0.1875 1.578125 0.390625q0.8125 0.203125 1.59375 0.453125q0.78125 0.25 1.390625 0.65625q1.34375 0.859375 1.34375 2.328125q0 1.78125 -1.328125 2.71875q-1.3125 0.921875 -3.640625 0.921875q-2.6405945 0 -4.0312195 -1.109375q-1.234375 -0.984375 -1.40625 -2.8125l1.484375 0q0.078125 1.296875 1.25 1.984375q1.03125 0.578125 2.7187195 0.578125q3.53125 0 3.53125 -2.21875q0 -0.765625 -0.640625 -1.1875q-0.625 -0.4375 -1.59375 -0.71875q-0.953125 -0.296875 -2.0625 -0.546875q-1.1093445 -0.25 -2.0780945 -0.625q-0.953125 -0.390625 -1.59375 -1.03125q-0.640625 -0.640625 -0.640625 -1.71875q0 -1.546875 1.171875 -2.515625q1.1875 -0.96875 3.5624695 -0.96875q2.390625 0 3.703125 1.109375q1.203125 0.96875 1.28125 2.484375l-1.46875 0q-0.1875 -1.5625 -2.015625 -2.0625q-0.640625 -0.203125 -1.609375 -0.203125q-0.953125 0 -1.6093445 0.21875q-0.65625 0.21875 -1.015625 0.53125zm13.957977 9.515625q1.921875 0 2.765625 -1.59375l1.546875 0q-0.484375 1.296875 -1.5625 2.09375q-1.078125 0.796875 -2.765625 0.796875q-2.140625 0 -3.5 -1.421875q-1.3125 -1.390625 -1.3125 -3.484375q0 -2.109375 1.265625 -3.484375q1.328125 -1.421875 3.453125 -1.421875q2.125 0 3.453125 1.421875q1.25 1.375 1.25 3.484375l0 0.5625l-7.953125 0q0.15625 1.3125 1.046875 2.171875q0.90625 0.875 2.3125 0.875zm-0.109375 -7.21875q-1.3125 0 -2.203125 0.8125q-0.84375 0.78125 -1.03125 2.03125l6.46875 0q-0.203125 -1.25 -1.03125 -2.03125q-0.890625 -0.8125 -2.203125 -0.8125zm7.2977905 8.359375l0 -8.25l-1.9375 0l0 -1.25l1.9375 0l0 -3.40625l1.421875 0l0 3.40625l2.1875 0l0 1.25l-2.1875 0l0 8.25l-1.421875 0z" fill-rule="nonzero"></path><path fill="#000000" d="m482.52982 398.5856l-1.4375 0l0 -12.578125l6.03125 0q1.921875 0 3.078125 1.0625q1.15625 1.046875 1.15625 2.875q0 2.359375 -1.953125 3.203125q-0.546875 0.25 -1.078125 0.359375l3.296875 5.078125l-1.6875 0l-3.046875 -4.828125l-4.359375 0l0 4.828125zm0 -6.171875l4.34375 0q2.015625 0 2.78125 -1.25q0.28125 -0.484375 0.28125 -1.21875q0 -1.203125 -0.828125 -1.890625q-0.8125 -0.703125 -2.15625 -0.703125l-4.421875 0l0 5.0625zm14.981049 5.03125q1.921875 0 2.765625 -1.59375l1.546875 0q-0.484375 1.296875 -1.5625 2.09375q-1.078125 0.796875 -2.765625 0.796875q-2.140625 0 -3.5 -1.421875q-1.3125 -1.390625 -1.3125 -3.484375q0 -2.109375 1.265625 -3.484375q1.328125 -1.421875 3.453125 -1.421875q2.125 0 3.453125 1.421875q1.25 1.375 1.25 3.484375l0 0.5625l-7.953125 0q0.15625 1.3125 1.046875 2.171875q0.90625 0.875 2.3125 0.875zm-0.109375 -7.21875q-1.3125 0 -2.203125 0.8125q-0.84375 0.78125 -1.03125 2.03125l6.46875 0q-0.203125 -1.25 -1.03125 -2.03125q-0.890625 -0.8125 -2.203125 -0.8125zm7.6884155 0.375q1.140625 -1.671875 3.40625 -1.671875q2.046875 0 3.328125 1.421875q1.265625 1.40625 1.265625 3.484375q0 2.078125 -1.265625 3.484375q-1.28125 1.421875 -3.4375 1.421875q-2.140625 0 -3.296875 -1.6875l0 5.296875l-1.421875 0l0 -13.265625l1.421875 0l0 1.515625zm3.21875 -0.375q-1.546875 0 -2.4375 1.0625q-0.859375 1.015625 -0.859375 2.546875q0 1.53125 0.859375 2.546875q0.890625 1.0625 2.4375 1.0625q1.515625 0 2.46875 -1.0625q0.890625 -1.015625 0.890625 -2.546875q0 -1.53125 -0.890625 -2.546875q-0.953125 -1.0625 -2.46875 -1.0625zm7.863037 8.359375l-1.421875 0l0 -13.296875l1.421875 0l0 13.296875zm4.93396 3.765625l-1.546875 0l1.734375 -3.90625l-3.875 -9.359375l1.578125 0l3.0625 7.796875l3.109375 -7.796875l1.5625 0l-5.625 13.265625z" fill-rule="nonzero"></path><path fill="#cfe2f3" d="m534.48804 492.08398l24.829529 0l0 15.100708l-24.829529 0z" fill-rule="nonzero"></path><path stroke="#000000" stroke-width="1.0" stroke-linejoin="round" stroke-linecap="butt" d="m534.48804 492.08398l24.829529 0l0 15.100708l-24.829529 0z" fill-rule="nonzero"></path><path fill="#000000" fill-opacity="0.0" d="m559.31757 498.5346l202.26776 0l0 28.125977l-202.26776 0z" fill-rule="nonzero"></path><path fill="#000000" d="m570.3488 495.24603l0 2.890625l4.78125 0l0 0.953125l-4.78125 0l0 2.890625l5.359375 0l0 0.9375l-6.34375 0l0 -8.609375l6.34375 0l0 0.9375l-5.359375 0zm7.6191406 7.671875l0 -5.640625l-1.328125 0l0 -0.859375l1.328125 0l0 -2.328125l0.96875 0l0 2.328125l1.5 0l0 0.859375l-1.5 0l0 5.640625l-0.96875 0zm4.6105347 -9.09375l0 3.609375q0.359375 -0.46875 0.859375 -0.796875q0.515625 -0.328125 1.15625 -0.328125q0.65625 0 1.125 0.1875q0.46875 0.1875 0.8125 0.546875q0.8125 0.796875 0.8125 2.09375l0 3.78125l-0.96875 0l0 -3.75q0 -0.90625 -0.515625 -1.4375q-0.5 -0.53125 -1.3125 -0.53125q-0.8125 0 -1.390625 0.546875q-0.578125 0.5625 -0.578125 1.421875l0 3.75l-0.96875 0l0 -9.09375l0.96875 0zm9.481201 8.3125q1.3125 0 1.875 -1.09375l1.0625 0q-0.328125 0.890625 -1.0625 1.4375q-0.734375 0.546875 -1.890625 0.546875q-1.46875 0 -2.390625 -0.984375q-0.90625 -0.9375 -0.90625 -2.375q0 -1.4375 0.859375 -2.375q0.90625 -0.984375 2.375 -0.984375q1.453125 0 2.359375 0.984375q0.859375 0.9375 0.859375 2.375l0 0.390625l-5.453125 0q0.109375 0.890625 0.71875 1.484375q0.625 0.59375 1.59375 0.59375zm-0.078125 -4.9375q-0.90625 0 -1.515625 0.5625q-0.5625 0.53125 -0.703125 1.390625l4.421875 0q-0.125 -0.859375 -0.703125 -1.390625q-0.609375 -0.5625 -1.5 -0.5625zm8.033142 -0.890625l0 0.984375l-0.125 0q-1.046875 0 -1.71875 0.84375q-0.625 0.796875 -0.625 1.921875l0 2.859375l-0.96875 0l0 -6.5l0.96875 0l0 1.59375q0.3125 -1.015625 1.359375 -1.484375q0.421875 -0.21875 1.046875 -0.21875l0.0625 0zm2.1293945 0.109375l0 1.015625q0.359375 -0.46875 0.859375 -0.796875q0.515625 -0.328125 1.15625 -0.328125q0.65625 0 1.125 0.1875q0.46875 0.1875 0.8125 0.546875q0.8125 0.796875 0.8125 2.09375l0 3.78125l-0.96875 0l0 -3.75q0 -0.90625 -0.515625 -1.4375q-0.5 -0.53125 -1.3125 -0.53125q-0.8125 0 -1.390625 0.546875q-0.578125 0.5625 -0.578125 1.421875l0 3.75l-0.96875 0l0 -6.5l0.96875 0zm9.481201 5.71875q1.3125 0 1.875 -1.09375l1.0625 0q-0.328125 0.890625 -1.0625 1.4375q-0.734375 0.546875 -1.890625 0.546875q-1.46875 0 -2.390625 -0.984375q-0.90625 -0.9375 -0.90625 -2.375q0 -1.4375 0.859375 -2.375q0.90625 -0.984375 2.375 -0.984375q1.453125 0 2.359375 0.984375q0.859375 0.9375 0.859375 2.375l0 0.390625l-5.453125 0q0.109375 0.890625 0.71875 1.484375q0.625 0.59375 1.59375 0.59375zm-0.078125 -4.9375q-0.90625 0 -1.515625 0.5625q-0.5625 0.53125 -0.703125 1.390625l4.421875 0q-0.125 -0.859375 -0.703125 -1.390625q-0.609375 -0.5625 -1.5 -0.5625zm5.298767 5.71875l0 -5.640625l-1.328125 0l0 -0.859375l1.328125 0l0 -2.328125l0.96875 0l0 2.328125l1.5 0l0 0.859375l-1.5 0l0 5.640625l-0.96875 0zm7.668213 0l-0.984375 0l0 -8.609375l3.875 0q1.375 0 2.171875 0.75q0.796875 0.765625 0.796875 2.015625q0 1.28125 -0.796875 2.03125q-0.796875 0.75 -2.171875 0.75l-2.890625 0l0 3.0625zm0 -7.6875l0 3.703125l2.828125 0q1.015625 0 1.53125 -0.484375q0.53125 -0.5 0.53125 -1.359375q0 -0.859375 -0.53125 -1.359375q-0.515625 -0.5 -1.53125 -0.5l-2.828125 0zm14.35437 -0.921875l0 8.609375l-0.984375 0l0 -3.828125l-5.0 0l0 3.828125l-0.984375 0l0 -8.609375l0.984375 0l0 3.828125l5.0 0l0 -3.828125l0.984375 0zm5.852173 8.609375l-0.984375 0l0 -3.40625l-3.609375 -5.203125l1.1875 0l2.90625 4.1875l2.921875 -4.1875l1.171875 0l-3.59375 5.203125l0 3.40625zm8.675354 0l-0.984375 0l0 -8.609375l4.125 0q1.3125 0 2.109375 0.734375q0.796875 0.71875 0.796875 1.953125q0 1.625 -1.34375 2.203125q-0.375 0.171875 -0.734375 0.25l2.25 3.46875l-1.15625 0l-2.078125 -3.296875l-2.984375 0l0 3.296875zm0 -4.21875l2.96875 0q1.390625 0 1.90625 -0.859375q0.1875 -0.328125 0.1875 -0.84375q0 -0.8125 -0.5625 -1.28125q-0.546875 -0.484375 -1.46875 -0.484375l-3.03125 0l0 3.46875zm11.463379 -0.234375l3.4375 4.453125l-1.25 0l-2.78125 -3.6875l-2.78125 3.6875l-1.234375 0l3.421875 -4.453125l-3.203125 -4.15625l1.25 0l2.546875 3.390625l2.546875 -3.390625l1.25 0l-3.203125 4.15625zm13.113525 3.671875q0.625 0 1.109375 -0.34375q0.484375 -0.359375 0.703125 -0.921875l1.046875 0q-0.296875 0.96875 -1.09375 1.546875q-0.828125 0.609375 -1.96875 0.609375q-1.4375 0 -2.328125 -0.984375q-0.875 -0.9375 -0.875 -2.375q0 -1.4375 0.875 -2.375q0.890625 -0.984375 2.328125 -0.984375q1.140625 0 1.96875 0.609375q0.796875 0.578125 1.09375 1.546875l-1.046875 0q-0.21875 -0.5625 -0.703125 -0.90625q-0.484375 -0.359375 -1.109375 -0.359375q-0.625 0 -1.0625 0.203125q-0.421875 0.1875 -0.734375 0.53125q-0.625 0.6875 -0.625 1.734375q0 1.046875 0.625 1.734375q0.65625 0.734375 1.796875 0.734375zm5.2191772 0.78125l-0.96875 0l0 -9.09375l0.96875 0l0 9.09375zm4.591675 -6.609375q1.453125 0 2.359375 0.984375q0.859375 0.9375 0.859375 2.375q0 1.4375 -0.859375 2.375q-0.90625 0.984375 -2.359375 0.984375q-1.46875 0 -2.375 -0.984375q-0.859375 -0.9375 -0.859375 -2.375q0 -1.4375 0.859375 -2.375q0.90625 -0.984375 2.375 -0.984375zm0 5.828125q1.046875 0 1.65625 -0.734375q0.59375 -0.6875 0.59375 -1.734375q0 -1.046875 -0.59375 -1.734375q-0.609375 -0.734375 -1.65625 -0.734375q-1.0625 0 -1.671875 0.734375q-0.578125 0.6875 -0.578125 1.734375q0 1.046875 0.578125 1.734375q0.609375 0.734375 1.671875 0.734375zm7.688904 0q0.625 0 1.109375 -0.34375q0.484375 -0.359375 0.703125 -0.921875l1.046875 0q-0.296875 0.96875 -1.09375 1.546875q-0.828125 0.609375 -1.96875 0.609375q-1.4375 0 -2.328125 -0.984375q-0.875 -0.9375 -0.875 -2.375q0 -1.4375 0.875 -2.375q0.890625 -0.984375 2.328125 -0.984375q1.140625 0 1.96875 0.609375q0.796875 0.578125 1.09375 1.546875l-1.046875 0q-0.21875 -0.5625 -0.703125 -0.90625q-0.484375 -0.359375 -1.109375 -0.359375q-0.625 0 -1.0625 0.203125q-0.421875 0.1875 -0.734375 0.53125q-0.625 0.6875 -0.625 1.734375q0 1.046875 0.625 1.734375q0.65625 0.734375 1.796875 0.734375zm7.1098022 -3.15625l2.8125 3.9375l-1.203125 0l-2.265625 -3.265625l-1.234375 1.21875l0 2.046875l-0.96875 0l0 -9.09375l0.96875 0l0 5.8125l3.140625 -3.21875l1.359375 0l-2.609375 2.5625z" fill-rule="nonzero"></path><path fill="#000000" d="m570.3488 522.7148l0 2.890625l4.78125 0l0 0.953125l-4.78125 0l0 2.890625l5.359375 0l0 0.9375l-6.34375 0l0 -8.609375l6.34375 0l0 0.9375l-5.359375 0zm7.6191406 7.671875l0 -5.640625l-1.328125 0l0 -0.859375l1.328125 0l0 -2.328125l0.96875 0l0 2.328125l1.5 0l0 0.859375l-1.5 0l0 5.640625l-0.96875 0zm4.6105347 -9.09375l0 3.609375q0.359375 -0.46875 0.859375 -0.796875q0.515625 -0.328125 1.15625 -0.328125q0.65625 0 1.125 0.1875q0.46875 0.1875 0.8125 0.546875q0.8125 0.796875 0.8125 2.09375l0 3.78125l-0.96875 0l0 -3.75q0 -0.90625 -0.515625 -1.4375q-0.5 -0.53125 -1.3125 -0.53125q-0.8125 0 -1.390625 0.546875q-0.578125 0.5625 -0.578125 1.421875l0 3.75l-0.96875 0l0 -9.09375l0.96875 0zm9.481201 8.3125q1.3125 0 1.875 -1.09375l1.0625 0q-0.328125 0.890625 -1.0625 1.4375q-0.734375 0.546875 -1.890625 0.546875q-1.46875 0 -2.390625 -0.984375q-0.90625 -0.9375 -0.90625 -2.375q0 -1.4375 0.859375 -2.375q0.90625 -0.984375 2.375 -0.984375q1.453125 0 2.359375 0.984375q0.859375 0.9375 0.859375 2.375l0 0.390625l-5.453125 0q0.109375 0.890625 0.71875 1.484375q0.625 0.59375 1.59375 0.59375zm-0.078125 -4.9375q-0.90625 0 -1.515625 0.5625q-0.5625 0.53125 -0.703125 1.390625l4.421875 0q-0.125 -0.859375 -0.703125 -1.390625q-0.609375 -0.5625 -1.5 -0.5625zm8.033142 -0.890625l0 0.984375l-0.125 0q-1.046875 0 -1.71875 0.84375q-0.625 0.796875 -0.625 1.921875l0 2.859375l-0.96875 0l0 -6.5l0.96875 0l0 1.59375q0.3125 -1.015625 1.359375 -1.484375q0.421875 -0.21875 1.046875 -0.21875l0.0625 0zm2.1293945 0.109375l0 1.015625q0.359375 -0.46875 0.859375 -0.796875q0.515625 -0.328125 1.15625 -0.328125q0.65625 0 1.125 0.1875q0.46875 0.1875 0.8125 0.546875q0.8125 0.796875 0.8125 2.09375l0 3.78125l-0.96875 0l0 -3.75q0 -0.90625 -0.515625 -1.4375q-0.5 -0.53125 -1.3125 -0.53125q-0.8125 0 -1.390625 0.546875q-0.578125 0.5625 -0.578125 1.421875l0 3.75l-0.96875 0l0 -6.5l0.96875 0zm9.481201 5.71875q1.3125 0 1.875 -1.09375l1.0625 0q-0.328125 0.890625 -1.0625 1.4375q-0.734375 0.546875 -1.890625 0.546875q-1.46875 0 -2.390625 -0.984375q-0.90625 -0.9375 -0.90625 -2.375q0 -1.4375 0.859375 -2.375q0.90625 -0.984375 2.375 -0.984375q1.453125 0 2.359375 0.984375q0.859375 0.9375 0.859375 2.375l0 0.390625l-5.453125 0q0.109375 0.890625 0.71875 1.484375q0.625 0.59375 1.59375 0.59375zm-0.078125 -4.9375q-0.90625 0 -1.515625 0.5625q-0.5625 0.53125 -0.703125 1.390625l4.421875 0q-0.125 -0.859375 -0.703125 -1.390625q-0.609375 -0.5625 -1.5 -0.5625zm5.298767 5.71875l0 -5.640625l-1.328125 0l0 -0.859375l1.328125 0l0 -2.328125l0.96875 0l0 2.328125l1.5 0l0 0.859375l-1.5 0l0 5.640625l-0.96875 0zm7.668213 0l-0.984375 0l0 -8.609375l3.875 0q1.375 0 2.171875 0.75q0.796875 0.765625 0.796875 2.015625q0 1.28125 -0.796875 2.03125q-0.796875 0.75 -2.171875 0.75l-2.890625 0l0 3.0625zm0 -7.6875l0 3.703125l2.828125 0q1.015625 0 1.53125 -0.484375q0.53125 -0.5 0.53125 -1.359375q0 -0.859375 -0.53125 -1.359375q-0.515625 -0.5 -1.53125 -0.5l-2.828125 0zm14.35437 -0.921875l0 8.609375l-0.984375 0l0 -3.828125l-5.0 0l0 3.828125l-0.984375 0l0 -8.609375l0.984375 0l0 3.828125l5.0 0l0 -3.828125l0.984375 0zm5.852173 8.609375l-0.984375 0l0 -3.40625l-3.609375 -5.203125l1.1875 0l2.90625 4.1875l2.921875 -4.1875l1.171875 0l-3.59375 5.203125l0 3.40625zm11.190979 -8.609375l0 8.609375l-0.96875 0l0 -7.671875l-1.828125 0l0 -0.9375l2.796875 0zm9.267944 2.46875q0 0.5625 -0.328125 1.09375q-0.328125 0.515625 -0.84375 0.96875q-0.5 0.453125 -1.09375 0.859375q-0.59375 0.390625 -1.109375 0.78125q-0.515625 0.390625 -0.875 0.765625q-0.359375 0.359375 -0.40625 0.734375l4.640625 0l0 0.9375l-5.796875 0l0 -0.53125q0 -0.640625 0.359375 -1.15625q0.359375 -0.53125 0.890625 -0.984375q0.546875 -0.46875 1.171875 -0.875q0.625 -0.421875 1.15625 -0.828125q0.546875 -0.421875 0.90625 -0.84375q0.359375 -0.4375 0.359375 -0.9375q0 -0.75 -0.5 -1.171875q-0.5 -0.4375 -1.40625 -0.4375q-0.890625 0 -1.4375 0.390625q-0.53125 0.375 -0.640625 1.109375l-0.96875 0q0.09375 -1.09375 0.953125 -1.765625q0.84375 -0.671875 2.03125 -0.671875q1.359375 0 2.171875 0.71875q0.765625 0.703125 0.765625 1.84375zm2.9554443 0.96875q0.65625 -0.40625 1.40625 -0.40625q0.765625 0 1.296875 0.21875q0.53125 0.203125 0.90625 0.578125q0.8125 0.78125 0.8125 2.03125q0 1.1875 -0.84375 2.03125q-0.828125 0.828125 -2.046875 0.828125q-1.484375 0 -2.3125 -0.8125q-0.609375 -0.578125 -0.78125 -1.453125l1.0 0q0.296875 0.875 1.21875 1.1875q0.359375 0.125 0.8125 0.125q0.46875 0 0.828125 -0.140625q0.359375 -0.15625 0.609375 -0.421875q0.53125 -0.5625 0.53125 -1.34375q0 -0.84375 -0.53125 -1.390625q-0.53125 -0.53125 -1.390625 -0.53125q-0.578125 0 -1.03125 0.21875q-0.453125 0.21875 -0.671875 0.46875l-0.890625 -0.546875l0.578125 -4.078125l4.484375 0l0 0.9375l-3.59375 0l-0.390625 2.5zm14.642944 -3.4375l0 8.609375l-0.96875 0l0 -7.125l-3.1875 4.09375l-3.234375 -4.09375l0 7.125l-0.984375 0l0 -8.609375l1.140625 0l3.078125 4.078125l3.03125 -4.078125l1.125 0zm9.336182 0l0 8.609375l-0.984375 0l0 -3.828125l-5.0 0l0 3.828125l-0.984375 0l0 -8.609375l0.984375 0l0 3.828125l5.0 0l0 -3.828125l0.984375 0zm2.8990479 7.703125l3.90625 0l0 0.90625l-5.125 0l0 -0.921875l3.890625 -4.6875l-3.84375 0l0 -0.890625l5.078125 0l0 0.90625l-3.90625 4.6875zm14.000793 0.125q0.625 0 1.109375 -0.34375q0.484375 -0.359375 0.703125 -0.921875l1.046875 0q-0.296875 0.96875 -1.09375 1.546875q-0.828125 0.609375 -1.96875 0.609375q-1.4375 0 -2.328125 -0.984375q-0.875 -0.9375 -0.875 -2.375q0 -1.4375 0.875 -2.375q0.890625 -0.984375 2.328125 -0.984375q1.140625 0 1.96875 0.609375q0.796875 0.578125 1.09375 1.546875l-1.046875 0q-0.21875 -0.5625 -0.703125 -0.90625q-0.484375 -0.359375 -1.109375 -0.359375q-0.625 0 -1.0625 0.203125q-0.421875 0.1875 -0.734375 0.53125q-0.625 0.6875 -0.625 1.734375q0 1.046875 0.625 1.734375q0.65625 0.734375 1.796875 0.734375zm5.2192383 0.78125l-0.96875 0l0 -9.09375l0.96875 0l0 9.09375zm4.591614 -6.609375q1.453125 0 2.359375 0.984375q0.859375 0.9375 0.859375 2.375q0 1.4375 -0.859375 2.375q-0.90625 0.984375 -2.359375 0.984375q-1.46875 0 -2.375 -0.984375q-0.859375 -0.9375 -0.859375 -2.375q0 -1.4375 0.859375 -2.375q0.90625 -0.984375 2.375 -0.984375zm0 5.828125q1.046875 0 1.65625 -0.734375q0.59375 -0.6875 0.59375 -1.734375q0 -1.046875 -0.59375 -1.734375q-0.609375 -0.734375 -1.65625 -0.734375q-1.0625 0 -1.671875 0.734375q-0.578125 0.6875 -0.578125 1.734375q0 1.046875 0.578125 1.734375q0.609375 0.734375 1.671875 0.734375zm7.688904 0q0.625 0 1.109375 -0.34375q0.484375 -0.359375 0.703125 -0.921875l1.046875 0q-0.296875 0.96875 -1.09375 1.546875q-0.828125 0.609375 -1.96875 0.609375q-1.4375 0 -2.328125 -0.984375q-0.875 -0.9375 -0.875 -2.375q0 -1.4375 0.875 -2.375q0.890625 -0.984375 2.328125 -0.984375q1.140625 0 1.96875 0.609375q0.796875 0.578125 1.09375 1.546875l-1.046875 0q-0.21875 -0.5625 -0.703125 -0.90625q-0.484375 -0.359375 -1.109375 -0.359375q-0.625 0 -1.0625 0.203125q-0.421875 0.1875 -0.734375 0.53125q-0.625 0.6875 -0.625 1.734375q0 1.046875 0.625 1.734375q0.65625 0.734375 1.796875 0.734375zm7.1098633 -3.15625l2.8125 3.9375l-1.203125 0l-2.265625 -3.265625l-1.234375 1.21875l0 2.046875l-0.96875 0l0 -9.09375l0.96875 0l0 5.8125l3.140625 -3.21875l1.359375 0l-2.609375 2.5625z" fill-rule="nonzero"></path><path fill="#f4cccc" d="m534.48804 519.0586l24.829529 0l0 15.100708l-24.829529 0z" fill-rule="nonzero"></path><path stroke="#000000" stroke-width="1.0" stroke-linejoin="round" stroke-linecap="butt" d="m534.48804 519.0586l24.829529 0l0 15.100708l-24.829529 0z" fill-rule="nonzero"></path><path fill="#000000" fill-opacity="0.0" d="m59.29659 158.61154l173.79527 0l0 48.0l-173.79527 0z" fill-rule="nonzero"></path><path fill="#000000" d="m73.327835 168.22092l6.015625 -6.046875l2.984375 0l-6.328125 6.3125l6.671875 6.875l-3.03125 0l-6.3125 -6.390625l0 6.390625l-2.34375 0l0 -13.1875l2.34375 0l0 6.046875zm10.66774 -6.046875l2.6875 0l3.875 10.671875l3.875 -10.671875l2.53125 0l-5.09375 13.1875l-2.78125 0l-5.09375 -13.1875zm21.553238 -0.109375q1.859375 0 3.65625 0.546875l0.375 0.109375l-0.765625 2.140625l-0.34375 -0.09375q-1.6875 -0.46875 -3.0625 -0.46875q-1.359375 0 -2.328125 0.453125q-0.96875 0.4375 -0.96875 1.140625q0 0.453125 0.421875 0.796875q0.4375 0.34375 1.125 0.578125q0.6875 0.234375 1.515625 0.46875q0.828125 0.234375 1.65625 0.546875q0.84375 0.296875 1.53125 0.703125q0.6875 0.390625 1.109375 1.0625q0.4375 0.65625 0.4375 1.515625q0 0.5625 -0.1875 1.109375q-0.1875 0.53125 -0.640625 1.0625q-0.453125 0.53125 -1.125 0.921875q-0.65625 0.390625 -1.6875 0.640625q-1.015625 0.25 -2.296875 0.25q-1.265625 0 -2.28125 -0.234375q-1.015625 -0.234375 -2.171875 -0.6875l-0.328125 -0.125l0.78125 -2.25l0.359375 0.140625q2.34375 0.828125 3.875 0.828125q1.421875 0 2.3125 -0.421875q0.890625 -0.4375 0.890625 -1.15625q0 -0.40625 -0.28125 -0.71875q-0.265625 -0.3125 -0.71875 -0.53125q-0.453125 -0.21875 -1.046875 -0.40625q-0.578125 -0.1875 -1.234375 -0.359375q-0.65625 -0.171875 -1.3125 -0.375q-0.640625 -0.203125 -1.234375 -0.484375q-0.578125 -0.296875 -1.03125 -0.65625q-0.453125 -0.359375 -0.734375 -0.90625q-0.265625 -0.546875 -0.265625 -1.21875q0 -1.671875 1.640625 -2.796875q1.640625 -1.125 4.359375 -1.125zm6.313858 11.53125l8.734375 0l0 2.140625l-8.734375 0l0 -2.140625zm21.629517 -11.421875l2.34375 0l0 13.1875l-2.34375 0l0 -5.71875l-7.046875 0l0 5.71875l-2.34375 0l0 -13.1875l2.34375 0l0 5.3125l7.046875 0l0 -5.3125zm11.491028 2.15625l-2.390625 0l0 8.875l1.6875 0q0.640625 0 1.0625 -0.015625q0.421875 -0.015625 1.09375 -0.125q0.671875 -0.109375 1.140625 -0.3125q0.484375 -0.203125 1.0 -0.609375q0.515625 -0.40625 0.859375 -0.96875q0.640625 -1.0625 0.640625 -2.484375q0 -0.8125 -0.234375 -1.5q-0.21875 -0.6875 -0.59375 -1.15625q-0.375 -0.46875 -0.890625 -0.8125q-0.5 -0.359375 -1.03125 -0.546875q-0.515625 -0.203125 -1.0625 -0.28125q-0.453125 -0.0625 -1.28125 -0.0625zm-0.0625 -2.15625q1.25 0 2.296875 0.203125q1.046875 0.1875 1.796875 0.53125q0.765625 0.328125 1.359375 0.8125q0.59375 0.46875 0.96875 1.0q0.390625 0.53125 0.625 1.171875q0.25 0.625 0.34375 1.234375q0.109375 0.609375 0.109375 1.25q0 0.859375 -0.140625 1.65625q-0.140625 0.796875 -0.5 1.625q-0.34375 0.8125 -0.90625 1.46875q-0.546875 0.640625 -1.4375 1.171875q-0.875 0.53125 -2.015625 0.78125q-0.578125 0.125 -1.296875 0.203125q-0.71875 0.0625 -1.1875 0.078125q-0.453125 0 -1.28125 0l-3.40625 0l0 -13.1875l4.671875 0zm11.37381 0l2.34375 0l0 11.046875l6.671875 0l0 2.140625l-9.015625 0l0 -13.1875z" fill-rule="nonzero"></path><path fill="#000000" d="m75.484085 191.04904l-2.15625 0l0 3.65625q2.015625 -0.046875 2.8125 -0.1875q1.921875 -0.34375 2.0625 -1.609375q0 -0.09375 0 -0.203125q0 -0.296875 -0.109375 -0.546875q-0.09375 -0.25 -0.359375 -0.515625q-0.265625 -0.28125 -0.84375 -0.4375q-0.5625 -0.15625 -1.40625 -0.15625zm0.15625 5.140625q-0.078125 0 -2.3125 0.109375l0 3.8125l2.078125 0q0.375 0 0.625 0q0.265625 0 0.734375 -0.03125q0.46875 -0.046875 0.796875 -0.109375q0.34375 -0.078125 0.734375 -0.21875q0.40625 -0.140625 0.640625 -0.328125q0.25 -0.203125 0.421875 -0.5q0.171875 -0.296875 0.171875 -0.6875q0 -0.953125 -1.0625 -1.5q-1.046875 -0.546875 -2.828125 -0.546875zm-4.65625 -7.109375l5.03125 0q0.84375 0 1.546875 0.140625q0.703125 0.125 1.171875 0.34375q0.484375 0.203125 0.859375 0.5q0.390625 0.28125 0.59375 0.59375q0.21875 0.296875 0.359375 0.640625q0.140625 0.328125 0.1875 0.609375q0.046875 0.265625 0.046875 0.53125q0 0.640625 -0.34375 1.296875q-0.34375 0.640625 -0.859375 1.078125q1.046875 0.4375 1.671875 1.34375q0.625 0.890625 0.625 1.96875q0 0.3125 -0.0625 0.640625q-0.0625 0.3125 -0.25 0.734375q-0.171875 0.40625 -0.453125 0.78125q-0.28125 0.375 -0.765625 0.75q-0.484375 0.375 -1.109375 0.640625q-0.625 0.265625 -1.546875 0.4375q-0.921875 0.15625 -2.03125 0.15625l-4.671875 0l0 -13.1875zm13.637756 -0.828125l2.28125 0l0 14.015625l-2.28125 0l0 -14.015625zm10.46286 4.671875q2.296875 0 3.703125 1.21875q1.40625 1.203125 1.40625 3.375q0 2.28125 -1.4375 3.609375q-1.421875 1.328125 -3.84375 1.328125q-2.296875 0 -3.6875 -1.25q-1.375 -1.25 -1.375 -3.421875q0 -2.234375 1.40625 -3.546875q1.40625 -1.3125 3.828125 -1.3125zm-0.140625 2.0625q-0.71875 0 -1.359375 0.265625q-0.625 0.265625 -1.0625 0.875q-0.421875 0.609375 -0.421875 1.421875q0 1.203125 0.828125 2.03125q0.84375 0.8125 2.171875 0.8125q1.21875 0 2.03125 -0.703125q0.828125 -0.71875 0.828125 -1.90625q0 -0.671875 -0.28125 -1.21875q-0.265625 -0.5625 -0.703125 -0.890625q-0.4375 -0.34375 -0.96875 -0.515625q-0.515625 -0.171875 -1.0625 -0.171875zm7.4318085 2.890625q0 -1.078125 0.296875 -1.9375q0.296875 -0.859375 0.796875 -1.40625q0.515625 -0.5625 1.21875 -0.921875q0.703125 -0.375 1.46875 -0.515625q0.765625 -0.15625 1.625 -0.15625q1.578125 0 2.90625 0.5625l0.3125 0.140625l-0.59375 1.8125l-0.359375 -0.125q-0.96875 -0.328125 -2.03125 -0.328125q-0.6875 0 -1.265625 0.125q-0.5625 0.125 -1.0625 0.40625q-0.5 0.265625 -0.796875 0.796875q-0.28125 0.515625 -0.28125 1.265625q0 2.84375 3.609375 2.84375q0.90625 0 1.71875 -0.28125l0.359375 -0.125l0.609375 1.75l-0.34375 0.125q-1.390625 0.546875 -2.984375 0.546875q-0.828125 0 -1.546875 -0.140625q-0.71875 -0.125 -1.40625 -0.453125q-0.6875 -0.328125 -1.171875 -0.828125q-0.484375 -0.515625 -0.78125 -1.3125q-0.296875 -0.8125 -0.296875 -1.84375zm13.362564 -1.09375l4.390625 -3.875l2.765625 0l-4.734375 4.203125l4.875 5.15625l-2.8125 0l-4.484375 -4.5625l0 4.5625l-2.28125 0l0 -14.015625l2.28125 0l0 8.53125zm13.619766 1.046875q0 -2.359375 1.390625 -3.640625q1.40625 -1.28125 3.75 -1.28125q1.078125 0 2.15625 0.328125l0 -4.984375l2.28125 0l0 14.015625l-1.6875 0l-0.1875 -0.421875q-1.34375 0.609375 -2.875 0.609375q-0.71875 0 -1.390625 -0.15625q-0.671875 -0.140625 -1.3125 -0.46875q-0.625 -0.34375 -1.09375 -0.859375q-0.46875 -0.515625 -0.75 -1.328125q-0.28125 -0.8125 -0.28125 -1.8125zm5.40625 2.609375q0.96875 0 1.890625 -0.328125l0 -4.953125q-0.984375 -0.28125 -1.90625 -0.28125q-0.421875 0 -0.8125 0.0625q-0.375 0.046875 -0.828125 0.234375q-0.4375 0.1875 -0.765625 0.46875q-0.3125 0.28125 -0.53125 0.796875q-0.203125 0.515625 -0.203125 1.171875q0 0.671875 0.203125 1.1875q0.21875 0.515625 0.53125 0.828125q0.328125 0.296875 0.765625 0.5q0.453125 0.1875 0.84375 0.25q0.40625 0.0625 0.8125 0.0625zm7.237915 -11.359375l2.5625 0l0 2.515625l-2.5625 0l0 -2.515625zm0.140625 4.015625l2.28125 0l0 9.171875l-2.28125 0l0 -9.171875zm9.37973 -0.171875q1.015625 0 1.765625 0.1875q0.75 0.171875 1.21875 0.46875q0.46875 0.296875 0.75 0.75q0.296875 0.4375 0.390625 0.90625q0.109375 0.453125 0.109375 1.015625l0 6.015625l-1.703125 0l-0.265625 -0.609375q-1.234375 0.796875 -2.8125 0.796875q-1.703125 0 -2.78125 -0.796875q-1.0625 -0.8125 -1.0625 -1.921875q0 -0.6875 0.34375 -1.1875q0.359375 -0.515625 0.921875 -0.828125q0.5625 -0.3125 1.40625 -0.5q0.859375 -0.1875 1.71875 -0.265625q0.859375 -0.078125 1.953125 -0.09375l0 -0.3125q0 -0.34375 -0.0625 -0.578125q-0.0625 -0.234375 -0.265625 -0.484375q-0.203125 -0.265625 -0.6875 -0.390625q-0.46875 -0.140625 -1.21875 -0.140625q-1.03125 0 -2.75 0.40625l-0.375 0.09375l-0.46875 -1.828125l0.3125 -0.109375q1.71875 -0.59375 3.5625 -0.59375zm1.953125 6.984375l0 -1.3125l-0.234375 0q-1.875 0 -2.796875 0.21875q-0.90625 0.21875 -0.90625 0.75q0 0.34375 0.5625 0.640625q0.5625 0.296875 1.359375 0.296875q1.140625 0 2.015625 -0.59375zm10.04451 -7.0q1.203125 0 2.609375 0.59375l0.140625 -0.40625l1.71875 0l0 9.359375q0 0.5 -0.078125 0.953125q-0.0625 0.46875 -0.234375 0.953125q-0.15625 0.5 -0.421875 0.90625q-0.25 0.421875 -0.671875 0.796875q-0.40625 0.390625 -0.953125 0.65625q-0.53125 0.265625 -1.28125 0.40625q-0.734375 0.15625 -1.640625 0.15625q-1.765625 0 -3.359375 -0.625l-0.34375 -0.140625l0.703125 -1.796875l0.375 0.140625q1.21875 0.390625 2.390625 0.390625q0.8125 0 1.40625 -0.1875q0.609375 -0.1875 0.953125 -0.484375q0.34375 -0.296875 0.546875 -0.734375q0.203125 -0.421875 0.265625 -0.828125q0.0625 -0.40625 0.0625 -0.90625l0 -0.078125q-1.171875 0.421875 -2.359375 0.421875q-0.734375 0 -1.421875 -0.15625q-0.6875 -0.15625 -1.34375 -0.515625q-0.640625 -0.359375 -1.125 -0.890625q-0.46875 -0.53125 -0.765625 -1.34375q-0.28125 -0.828125 -0.28125 -1.84375q0 -1.046875 0.328125 -1.890625q0.34375 -0.84375 0.875 -1.359375q0.546875 -0.53125 1.234375 -0.890625q0.703125 -0.359375 1.359375 -0.5q0.671875 -0.15625 1.3125 -0.15625zm0.109375 2.0q-1.296875 0 -2.078125 0.71875q-0.78125 0.71875 -0.78125 1.921875q0 1.265625 0.796875 2.078125q0.796875 0.8125 2.28125 0.8125q0.921875 0 1.859375 -0.328125l0 -4.84375q-1.203125 -0.359375 -2.078125 -0.359375zm9.253601 -1.3125q1.453125 -0.671875 3.09375 -0.671875q1.046875 0 1.921875 0.40625l0.3125 0.140625l-0.71875 1.90625l-0.359375 -0.140625q-0.65625 -0.25 -1.40625 -0.25q-1.21875 0 -2.34375 0.4375l0 6.84375l-2.28125 0l0 -9.171875l1.515625 0l0.265625 0.5zm10.704819 -0.671875q1.015625 0 1.765625 0.1875q0.75 0.171875 1.21875 0.46875q0.46875 0.296875 0.75 0.75q0.296875 0.4375 0.390625 0.90625q0.109375 0.453125 0.109375 1.015625l0 6.015625l-1.703125 0l-0.265625 -0.609375q-1.234375 0.796875 -2.8125 0.796875q-1.703125 0 -2.78125 -0.796875q-1.0625 -0.8125 -1.0625 -1.921875q0 -0.6875 0.34375 -1.1875q0.359375 -0.515625 0.921875 -0.828125q0.5625 -0.3125 1.40625 -0.5q0.859375 -0.1875 1.71875 -0.265625q0.859375 -0.078125 1.953125 -0.09375l0 -0.3125q0 -0.34375 -0.0625 -0.578125q-0.0625 -0.234375 -0.265625 -0.484375q-0.203125 -0.265625 -0.6875 -0.390625q-0.46875 -0.140625 -1.21875 -0.140625q-1.03125 0 -2.75 0.40625l-0.375 0.09375l-0.46875 -1.828125l0.3125 -0.109375q1.71875 -0.59375 3.5625 -0.59375zm1.953125 6.984375l0 -1.3125l-0.234375 0q-1.875 0 -2.796875 0.21875q-0.90625 0.21875 -0.90625 0.75q0 0.34375 0.5625 0.640625q0.5625 0.296875 1.359375 0.296875q1.140625 0 2.015625 -0.59375zm9.872635 -4.828125q-0.796875 0 -2.171875 0.5l0 6.6875l-2.28125 0l0 -9.171875l1.703125 0l0.25 0.609375q1.640625 -0.78125 3.234375 -0.78125q1.609375 0 2.5 0.921875q1.734375 -0.90625 3.6875 -0.90625q0.84375 0 1.5 0.203125q0.65625 0.203125 1.046875 0.546875q0.390625 0.34375 0.640625 0.859375q0.25 0.515625 0.328125 1.0625q0.09375 0.53125 0.09375 1.21875l0 5.4375l-2.28125 0l0 -5.40625q0 -0.875 -0.453125 -1.328125q-0.453125 -0.453125 -1.484375 -0.453125q-0.859375 0 -2.21875 0.5q0.078125 0.484375 0.078125 1.3125l0 5.375l-2.28125 0l0 -5.453125q0 -1.734375 -1.890625 -1.734375z" fill-rule="nonzero"></path></g></svg>

